<?xml version="1.0" encoding="utf-8"?>
<!-- Generator: Adobe Illustrator 26.0.1, SVG Export Plug-In . SVG Version: 6.00 Build 0)  -->
<svg version="1.1" id="레이어_1" xmlns="http://www.w3.org/2000/svg" xmlns:xlink="http://www.w3.org/1999/xlink" x="0px"
	 y="0px" viewBox="0 0 256 190" style="enable-background:new 0 0 256 190;" xml:space="preserve">
<style type="text/css">
	.st0{fill:#FFFFFF;}
	.st1{fill:#DDD5B3;}
	.st2{fill:#F2B60F;}
	.st3{fill:#F2F2F2;}
	.st4{fill:#DDDDDD;}
</style>
<g>
	<rect class="st0" width="256" height="190"/>
	<g>
		<g>
			<path class="st1" d="M74.7,60.9c-0.2-0.6-0.2-1.3,0.2-1.7c0.5-0.5,1.2-0.6,1.9-0.5c0.3,0,0.5,0,0.8,0.1c0.2,0.1,0.4,0.3,0.6,0.5
				c0.5,0.6,0.7,1.4,0.6,2.1c0,0.3-0.1,0.7-0.4,0.9c-0.3,0.2-0.7,0.2-1,0.3c-0.5,0-1.3,0.1-1.7-0.2C75.2,62,74.8,61.4,74.7,60.9z"/>
			<path d="M76.9,63.2c-0.5,0-1.1,0-1.6-0.4c-0.5-0.4-1-1.1-1.2-1.7v0c-0.3-0.8-0.2-1.7,0.3-2.3c0.6-0.7,1.6-0.8,2.4-0.7
				c0.3,0,0.6,0,1,0.2c0.3,0.1,0.6,0.4,0.8,0.7c0.6,0.7,0.8,1.6,0.7,2.5c-0.1,0.6-0.3,1-0.6,1.3c-0.4,0.4-1,0.4-1.4,0.4l-0.2,0
				C77.1,63.1,77,63.2,76.9,63.2z M75.2,60.7c0.2,0.4,0.5,0.9,0.7,1.1c0.3,0.2,0.8,0.2,1.2,0.2l0.2,0c0.2,0,0.5,0,0.7-0.1
				c0.1-0.1,0.2-0.3,0.2-0.5c0.1-0.6-0.1-1.2-0.5-1.7c-0.1-0.2-0.3-0.3-0.4-0.3c-0.1-0.1-0.3-0.1-0.6-0.1c-0.8,0-1.2,0.1-1.5,0.4
				C75.1,59.9,75.1,60.4,75.2,60.7L75.2,60.7z"/>
		</g>
		<g>
			<path class="st1" d="M71.2,61.7c-0.2-0.6-0.2-1.3,0.2-1.7c0.5-0.5,1.2-0.6,1.9-0.5c0.3,0,0.5,0,0.8,0.1c0.2,0.1,0.4,0.3,0.6,0.5
				c0.5,0.6,0.7,1.4,0.6,2.1c0,0.3-0.1,0.7-0.4,0.9c-0.3,0.2-0.7,0.2-1,0.3c-0.5,0-1.3,0.1-1.7-0.2C71.7,62.8,71.3,62.2,71.2,61.7z"
				/>
			<path d="M73.3,64c-0.5,0-1.1,0-1.6-0.4c-0.5-0.4-1-1.1-1.2-1.7c-0.3-0.8-0.2-1.7,0.3-2.3c0.6-0.7,1.6-0.8,2.4-0.7
				c0.3,0,0.6,0,1,0.2c0.3,0.1,0.6,0.4,0.8,0.7c0.6,0.7,0.8,1.6,0.7,2.5c-0.1,0.6-0.3,1-0.6,1.3c-0.4,0.4-1,0.4-1.4,0.4l-0.2,0
				C73.6,63.9,73.5,64,73.3,64z M73,60c-0.6,0-1,0.1-1.2,0.4c-0.3,0.3-0.2,0.8-0.1,1.1v0c0.2,0.4,0.5,0.9,0.7,1.1
				c0.3,0.2,0.8,0.2,1.2,0.2l0.2,0c0.2,0,0.5,0,0.7-0.1c0.1-0.1,0.2-0.3,0.2-0.5c0.1-0.6-0.1-1.2-0.5-1.7c-0.1-0.2-0.3-0.3-0.4-0.3
				c-0.1-0.1-0.3-0.1-0.6-0.1C73.2,60,73.1,60,73,60z"/>
		</g>
		<g>
			<path class="st2" d="M87.6,56.6c0.3,0.2,0.6,0.2,0.8,0.4c-0.3,0.1-0.7,0.3-1,0.3"/>
			<path d="M87.4,57.9c-0.3,0-0.6-0.2-0.6-0.5c0-0.2,0.1-0.4,0.3-0.5c-0.1-0.2-0.1-0.4,0-0.6c0.2-0.3,0.5-0.3,0.8-0.1
				c0.1,0.1,0.2,0.1,0.3,0.1c0.2,0.1,0.4,0.2,0.6,0.4C89,56.7,89,57,89,57.2c-0.1,0.2-0.2,0.4-0.4,0.4c-0.1,0-0.2,0.1-0.3,0.1
				C88,57.8,87.7,57.9,87.4,57.9C87.4,57.9,87.4,57.9,87.4,57.9z"/>
		</g>
		<g>
			<path class="st3" d="M79.8,65.5c0,0,0.1,0,0.1,0c1.2,0.4,2.5-0.5,3.4-1.3c1.1-0.9,2.1-1.8,2.9-2.9c0.7-1,1-2.3,1.3-3.5
				c0.2-0.7,0.3-1.5-0.1-2.1c-0.1-0.2-0.3-0.3-0.5-0.4c-0.5-0.3-1.1-0.4-1.6-0.1c-0.2,0.1-0.3,0.3-0.5,0.5c-0.7,0.8-1.6,0.9-2.5,1.2
				c-0.9,0.4-1.7,0.9-2.5,1.6c-1.2,1.1-2.1,2.5-3,3.9c-0.5,0.8-1.1,1.6-1.6,2.5c-0.3,0.5-1,0.7-1.5,1.1c1,0.4,2.1,0.4,3.1,0.2
				c1.4-0.3,2.8-0.6,4-1.4"/>
			<path d="M75.6,66.9c-0.7,0-1.3-0.1-1.9-0.4l-0.9-0.4l0.8-0.6c0.2-0.1,0.4-0.3,0.6-0.4c0.3-0.2,0.6-0.3,0.7-0.5l1.6-2.5
				c0.9-1.4,1.8-2.8,3.1-4c0.8-0.7,1.7-1.3,2.6-1.7c0.3-0.1,0.5-0.2,0.8-0.3c0.6-0.2,1.1-0.3,1.5-0.8l0.1-0.1
				c0.1-0.2,0.3-0.3,0.5-0.5c0.6-0.4,1.4-0.4,2.2,0c0.3,0.2,0.5,0.4,0.7,0.6c0.6,0.8,0.3,1.9,0.2,2.5c0,0.2-0.1,0.4-0.1,0.6
				c-0.3,1.1-0.5,2.2-1.2,3.1c-0.8,1.2-1.9,2.1-3,3c-1.1,1-2.5,1.9-3.9,1.4c-0.9,0.3-1.8,0.5-2.7,0.7C76.6,66.9,76.1,66.9,75.6,66.9
				z M75.4,65.8c0.4,0,0.9,0,1.5-0.1c1.3-0.3,2.7-0.6,3.8-1.3l0.4,0.6c0.7-0.2,1.3-0.7,1.9-1.2c1-0.9,2.1-1.7,2.8-2.8
				c0.6-0.7,0.8-1.7,1-2.7c0-0.2,0.1-0.4,0.1-0.6c0.1-0.6,0.3-1.2,0-1.6c-0.1-0.1-0.2-0.2-0.3-0.3c-0.3-0.2-0.7-0.3-0.9-0.1
				c-0.1,0.1-0.2,0.2-0.3,0.3l-0.1,0.1c-0.6,0.7-1.3,0.9-2,1.1c-0.2,0.1-0.5,0.2-0.7,0.3c-0.8,0.3-1.6,0.9-2.3,1.5
				c-1.2,1.1-2.1,2.5-2.9,3.8l-1.6,2.5C75.8,65.5,75.6,65.6,75.4,65.8z"/>
		</g>
		<g>
			<circle cx="86.8" cy="56.3" r="0.2"/>
		</g>
		<g>
			<path class="st4" d="M70.7,65c0.3,0.3,0.7,0.6,1.1,0.8c0.6,0.3,1.2,0.4,1.8,0.5c1,0.1,2,0.3,3,0.4c0.9,0.1,1.8,0.2,2.6,0.2
				c1.7,0,3.4-0.6,5-1.2c0.3-0.1,0.6-0.2,0.9-0.4c0.3-0.2,0.5-0.5,0.8-0.9c0.8-1.1,1.5-2.1,2.3-3.2c-2.9-0.3-5.9-0.5-8.8-0.4
				c-1,0-1.9,0.1-2.9,0.1c-0.6,0-1.1,0.1-1.7,0.1c-1.6,0.1-3.2,0.2-4.9,0.2c-0.4,0-2-0.1-2.1,0.2c-0.2,0.3,0.9,1.4,1.2,1.6
				C69.5,63.8,70.1,64.4,70.7,65z"/>
			<path d="M79,67.4c-0.8,0-1.7-0.1-2.5-0.2l-3-0.4c-0.6-0.1-1.4-0.2-2-0.5c-0.5-0.2-0.9-0.6-1.2-0.9c-0.6-0.6-1.2-1.2-1.8-1.9
				c0,0-0.1-0.1-0.2-0.2c-0.8-0.9-1.4-1.5-1.1-2.1c0.3-0.5,1-0.6,2.3-0.5c0.2,0,0.3,0,0.3,0l6.6-0.3c1-0.1,1.9-0.1,2.9-0.1
				c3-0.1,6,0,8.9,0.4c0.2,0,0.4,0.2,0.5,0.3c0.1,0.2,0.1,0.4-0.1,0.6l-2.3,3.2c-0.2,0.3-0.5,0.7-0.9,1c-0.3,0.2-0.7,0.4-1,0.5
				c-1.7,0.6-3.4,1.2-5.2,1.2C79.2,67.4,79.1,67.4,79,67.4z M68.6,61.9c0.1,0.2,0.3,0.4,0.6,0.7c0.1,0.1,0.2,0.2,0.2,0.2
				c0.5,0.6,1.1,1.2,1.7,1.8c0,0,0,0,0,0c0.3,0.3,0.6,0.6,1,0.7c0.5,0.2,1.1,0.3,1.6,0.4l3,0.4c0.8,0.1,1.7,0.2,2.5,0.2
				c1.7,0,3.3-0.6,4.9-1.1c0.3-0.1,0.5-0.2,0.7-0.3c0.2-0.2,0.4-0.4,0.6-0.7l1.7-2.4c-2.6-0.3-5.2-0.3-7.8-0.3
				c-0.9,0-1.9,0.1-2.8,0.1l-6.6,0.3c-0.1,0-0.2,0-0.4,0C69.3,61.8,68.9,61.8,68.6,61.9z"/>
		</g>
	</g>
	<g>
		<g>
			<polygon class="st4" points="70,81.1 109.6,53.3 203.2,40.1 168.2,81.1 			"/>
			<path d="M168.2,81.7H70c-0.3,0-0.5-0.2-0.5-0.4c-0.1-0.2,0-0.5,0.2-0.6l39.5-27.8c0.1-0.1,0.2-0.1,0.3-0.1l93.6-13.2
				c0.2,0,0.5,0.1,0.6,0.3c0.1,0.2,0.1,0.5-0.1,0.6l-35,41C168.5,81.6,168.4,81.7,168.2,81.7z M71.9,80.5h96.1l33.8-39.7l-91.9,13
				L71.9,80.5z"/>
		</g>
		<g>
			<rect x="217.8" y="35.2" transform="matrix(0.8069 -0.5907 0.5907 0.8069 6.3809 140.693)" width="1.1" height="50.8"/>
		</g>
		<g>
			<polygon points="173.3,148.3 172,76.3 173.2,76.3 174.4,147 227.6,140.5 227.8,79.3 228.9,79.4 228.8,141.6 			"/>
		</g>
		<g>
			<polygon points="173.8,148.2 76.6,139.7 76.6,81.3 77.8,81.3 77.8,138.7 173.9,147.1 			"/>
		</g>
	</g>
	<g id="SPLINE_58_">
		<g>
			<path d="M60.3,148.2c-0.2,0-0.4-0.1-0.5-0.3c-0.2-0.3-0.1-0.6,0.2-0.8c0.7-0.5,1.9-1.4,2.1-1.8c0.1-0.2,0.2-0.4,0.4-0.8
				c0.6-1,1.7-3.1,1.7-3.9c0-1.1,0.4-6.2,0.6-7.8c-0.2,0-0.5,0-0.8,0c-0.4,0-0.8,0.1-1.2,0c-0.3-0.1-0.5-0.1-0.7-0.2
				c-0.6-0.2-1.1-0.3-1.8-0.4l-0.2,0c-1-0.1-2.4-0.2-3.3-0.4c-1.4-0.4-2.6-1-3.7-1.7c-0.6-0.4-1.2-0.7-1.9-1.1
				c-0.3-0.1-0.4-0.5-0.3-0.8c0.1-0.3,0.5-0.4,0.8-0.3c0.7,0.4,1.4,0.7,2,1.1c1.1,0.7,2.1,1.3,3.4,1.6c0.8,0.2,2.2,0.3,3.1,0.4
				l0.2,0c0.7,0.1,1.3,0.2,1.9,0.4c0.2,0.1,0.4,0.1,0.7,0.2c0.2,0.1,0.5,0,0.8,0c0.6,0,1.3-0.1,1.8,0.3c0.2,0.1,0.3,0.3,0.2,0.5
				c0,0.1-0.6,6.9-0.6,8.1c0,1-0.9,2.8-1.9,4.4c-0.2,0.3-0.3,0.6-0.4,0.7c-0.5,0.9-2.2,2.1-2.5,2.3
				C60.5,148.2,60.4,148.2,60.3,148.2z"/>
		</g>
	</g>
	<g id="SPLINE_57_">
		<g>
			<path d="M124,132.4c-0.2,0-0.4,0-0.5,0c-0.1,0-0.3,0-0.4,0c-0.1,0-0.2,0-0.3,0c-0.3,0-0.7,0.1-1.2-0.1c-0.2-0.1-0.3-0.2-0.5-0.3
				c-0.2-0.1-0.4-0.2-0.6-0.3c-0.2,0-0.4,0-0.7,0c-0.2,0-0.3,0-0.5,0c-0.4,0-0.7-0.2-0.9-0.3c-0.1-0.1-0.2-0.1-0.2-0.1
				c0,0-0.1,0-0.1,0c-0.2,0-0.4,0-0.6-0.2c-0.2-0.1-0.3-0.2-0.3-0.3c0,0-0.1-0.1-0.1-0.1c-0.1,0-0.1-0.1-0.2-0.1
				c-0.3-0.1-0.6-0.3-0.8-0.8c-0.1-0.3,0-0.6,0.3-0.7c0.3-0.1,0.6,0,0.7,0.3c0,0,0,0,0.2,0.1c0.1,0.1,0.3,0.1,0.5,0.3
				c0.1,0.1,0.2,0.2,0.3,0.3c0,0,0.1,0.1,0.1,0.1c0,0,0,0,0,0c0.1,0,0.2,0,0.4,0.1c0.2,0.1,0.4,0.2,0.5,0.3c0.1,0.1,0.2,0.1,0.3,0.1
				c0.1,0,0.3,0,0.4,0c0.3,0,0.6-0.1,1,0c0.4,0.1,0.7,0.2,0.9,0.4c0.1,0.1,0.2,0.1,0.4,0.2c0.2,0.1,0.3,0.1,0.6,0c0.1,0,0.3,0,0.4,0
				c0.2,0,0.4,0,0.6,0c0.2,0,0.4,0,0.5,0c0,0,0.1-0.1,0.2-0.2c0.1-0.1,0.3-0.3,0.5-0.4c0.3-0.2,0.6-0.2,0.9-0.1c0.1,0,0.3,0,0.3,0
				c0.2-0.1,0.6-0.2,1,0c0.1,0,0.2,0.1,0.2,0.1c0.1,0,0.1,0.1,0.2,0.1c0.2,0.1,0.2,0.1,0.3,0.1c0,0,0.1,0,0.1,0c0.1,0,0.4-0.1,0.6,0
				c0.2,0,0.3,0.1,0.4,0.2c0,0,0.1,0.1,0.1,0.1c0,0,0.2,0,0.3-0.1c0.2-0.1,0.5-0.2,0.8-0.2c0.2,0,0.3,0,0.4,0.1c0.1,0,0.1,0,0.2,0
				c0,0,0.1-0.1,0.1-0.2c0-0.1,0.1-0.1,0.1-0.2c0.1-0.2,0.3-0.3,0.4-0.4c0.1-0.1,0.2-0.1,0.2-0.2c0-0.1,0-0.3-0.2-0.7
				c-0.1-0.1-0.2-0.2-0.3-0.3c-0.2-0.2-0.5-0.4-0.5-0.8c0-0.1,0-0.3,0-0.4c0,0,0-0.1,0-0.1c0,0,0,0-0.1-0.1
				c-0.1-0.1-0.2-0.3-0.2-0.5c-0.1-0.3-0.1-0.8,0.1-1.1c0.2-0.2,0.4-0.3,0.7-0.3c0.2,0,0.3,0,0.5,0c0.2,0,0.4,0,0.5,0
				c0.1-0.1,0.2-0.2,0.3-0.3c0.2-0.1,0.5-0.2,0.7-0.2c0,0,0,0,0,0c-0.2-0.1-0.3-0.2-0.6-0.3c-0.1,0-0.2-0.1-0.2-0.1
				c-0.3-0.1-0.5-0.4-0.6-0.5c-0.1-0.1-0.1-0.2-0.2-0.2l-0.1,0c-0.2-0.1-0.4-0.2-0.5-0.6c0-0.1,0-0.1,0-0.2c0-0.1,0-0.2-0.1-0.2
				c-0.1-0.1-0.3-0.2-0.4-0.2c-0.2,0.1-0.5,0.2-0.9,0.1c-0.2-0.1-0.5-0.3-0.6-0.6c-0.2-0.2-0.2-0.4-0.3-0.6l0-0.1c0,0,0,0-0.1-0.1
				c-0.1-0.1-0.1-0.1-0.2-0.2c-0.2-0.3-0.3-0.5-0.3-0.7c0-0.1,0-0.1-0.1-0.2c-0.1-0.1-0.1-0.2-0.1-0.4c-0.1-0.2-0.1-0.4-0.1-0.6
				c0-0.1,0-0.2,0-0.3l-0.1-0.1c-0.1-0.1-0.3-0.2-0.4-0.5c0,0,0-0.1,0-0.1c-0.2,0-0.6,0-0.9-0.4c0,0,0,0,0-0.1c0,0,0,0-0.1,0
				c-0.1,0-0.2,0-0.3,0c-0.8-0.1-0.9-0.8-0.9-1.1l0-0.1c0-0.1-0.2-0.2-0.3-0.2l-0.1,0c-0.2,0-0.4-0.1-0.6-0.2
				c-0.2-0.2-0.3-0.3-0.4-0.5c0,0,0-0.1-0.1-0.1c-0.1-0.1-0.4-0.1-0.6-0.1c-0.1,0-0.2,0-0.3,0c-0.4,0.1-0.7,0.1-0.9,0
				c-0.3-0.1-0.4,0-0.5,0.1c-0.2,0.2-0.4,0.4-0.8,0.4c-0.2,0-0.4-0.1-0.5-0.2c0,0-0.1,0-0.1,0c-0.3-0.1-0.5-0.4-0.4-0.7
				c0.1-0.3,0.4-0.5,0.7-0.4c0.1,0,0.2,0.1,0.3,0.1c0,0,0,0,0,0c0,0,0,0,0,0c0.6-0.5,1.1-0.4,1.6-0.3c0.2,0,0.2,0,0.2,0
				c0.2-0.1,0.4-0.1,0.7-0.1c0.4,0,1.1,0.1,1.5,0.6c0.1,0.1,0.1,0.2,0.1,0.2c0,0,0,0.1,0.1,0.1c0,0,0.1,0,0.1,0l0.1,0
				c0.8,0.2,1.1,0.8,1.1,1.1c0,0.1,0,0.1,0,0.2c0,0,0,0,0,0.1c0,0,0,0,0,0c0.1,0,0.3,0,0.5,0c0.3,0.1,0.4,0.3,0.5,0.4
				c0.2,0,0.4-0.1,0.7,0.1c0.3,0.2,0.4,0.5,0.4,0.6c0,0.1,0.1,0.1,0.1,0.1c0,0,0.1,0.1,0.1,0.1c0.4,0.4,0.4,0.8,0.4,1.1
				c0,0.1,0,0.2,0,0.3c0,0.1,0,0.1,0.1,0.1c0.1,0.1,0.1,0.3,0.2,0.5c0,0.2,0,0.2,0.1,0.3c0,0,0.1,0.1,0.1,0.1
				c0.1,0.1,0.3,0.3,0.4,0.6l0,0.1c0,0.1,0,0.2,0.1,0.2c0,0.1,0.1,0.1,0.1,0.1l0,0c0.7-0.3,1.4,0.1,1.8,0.6c0.1,0.2,0.2,0.4,0.2,0.6
				c0,0,0,0,0,0.1l0.1,0.1c0.2,0.1,0.3,0.3,0.5,0.4c0.1,0.1,0.1,0.2,0.2,0.2l0.1,0.1c1,0.5,1.7,0.8,1.8,1.4c0,0.3,0,0.5-0.2,0.7
				c-0.4,0.4-0.8,0.4-1.2,0.4c-0.1,0-0.1,0-0.2,0c-0.2,0-0.2,0-0.2,0c-0.1,0.1-0.2,0.2-0.4,0.3c-0.4,0.2-0.7,0.1-1,0.1
				c0,0,0,0-0.1,0c0,0,0,0,0,0.1c0,0,0,0.1,0.1,0.1c0.1,0.1,0.1,0.2,0.2,0.3c0.1,0.3,0.1,0.5,0,0.7c0,0,0,0,0,0.1c0,0,0,0,0.1,0
				l0.1,0.1c0.2,0.2,0.3,0.3,0.5,0.5c0.4,0.5,0.5,1.1,0.4,1.5c-0.1,0.4-0.3,0.7-0.5,0.9c-0.1,0.1-0.1,0.1-0.2,0.2
				c0,0.1-0.1,0.1-0.1,0.2c-0.2,0.3-0.4,0.8-1.2,0.8c-0.1,0-0.2,0-0.4-0.1c-0.1,0-0.2,0-0.2,0c-0.1,0-0.2,0-0.3,0.1
				c-0.3,0.1-0.6,0.2-1,0.1c-0.1,0-0.3-0.1-0.4-0.2c0,0-0.1-0.1-0.1-0.1c0,0-0.1,0-0.1,0c-0.1,0-0.2,0.1-0.4,0.1
				c-0.3,0-0.6-0.1-0.8-0.2c-0.1-0.1-0.2-0.1-0.3-0.2c0,0-0.1-0.1-0.1-0.1c0,0,0,0-0.1,0c-0.3,0.1-0.5,0.1-0.7,0.1
				c-0.1,0-0.3,0-0.3,0c0,0-0.1,0.1-0.2,0.2c-0.2,0.2-0.4,0.5-0.8,0.5C124.3,132.4,124.2,132.4,124,132.4z M131.1,126.7
				C131.1,126.7,131.1,126.7,131.1,126.7C131.1,126.7,131.1,126.7,131.1,126.7z"/>
		</g>
	</g>
	<g id="SPLINE_56_">
		<g>
			<path class="st0" d="M120,115.5c0.2-0.1,0.3-0.3,0.4-0.5c0.1-0.3,0-0.4,0-0.7c0-0.2,0.2-0.4,0.4-0.5c0.2-0.1,0.5,0,0.7-0.2
				c0.2-0.1,0.4-0.3,0.4-0.5c0.1-0.1,0-0.2,0-0.4c0-0.1,0-0.2,0.1-0.3c0.1-0.4-0.1-1,0.5-1.1c0.2-0.1,0.5,0,0.7,0
				c0.2,0,0.5-0.1,0.7-0.1c0.4-0.1,1,0,1.1-0.5c0-0.3-0.2-0.4-0.2-0.6c0-0.3,0.1-0.6,0.2-0.8c0.1-0.3,0.1-0.5,0-0.7
				c-0.1-0.2-0.3-0.4-0.4-0.6c-0.3-0.4,0.1-0.9-0.1-1.3c-0.1-0.5-0.9-0.6-0.6-1.1c0.1-0.2,0.2-0.4,0.4-0.5c0.2-0.2,0.4-0.2,0.4-0.5
				c0.1-0.5-0.5-0.8-0.5-1.3c0-0.5,0.2-1.1-0.3-1.4c-0.4-0.2-0.9-0.1-1-0.7c-0.1-0.4,0.1-1.1-0.4-1.4c-0.2-0.1-0.4-0.1-0.6-0.3
				c-0.2-0.2-0.3-0.5-0.3-0.7c-0.1-0.2-0.1-0.5-0.2-0.7c-0.1-0.2-0.3-0.4-0.2-0.6c0.1-0.1,0.2-0.2,0.2-0.4c0-0.2,0-0.3-0.1-0.4
				c-0.1-0.2-0.4-0.3-0.5-0.5c-0.1-0.2,0-0.5-0.2-0.7c-0.2-0.1-0.5-0.2-0.7-0.2c-0.2,0-0.5-0.1-0.7,0c-0.2,0.2-0.1,0.5-0.4,0.7"/>
			<path d="M120,116c-0.2,0-0.4-0.1-0.5-0.3c-0.2-0.3-0.1-0.6,0.2-0.8c0.1-0.1,0.2-0.2,0.2-0.3c0,0,0,0,0-0.1c0-0.1,0-0.3,0-0.5
				c0.1-0.4,0.4-0.8,0.7-0.9c0.2-0.1,0.4-0.1,0.5-0.1c0,0,0.1,0,0.1,0c0.1,0,0.2-0.1,0.2-0.2l0-0.1c0-0.2,0-0.4,0.1-0.6
				c0-0.1,0-0.2,0-0.3c0-0.3,0.1-1,0.8-1.2c0.2-0.1,0.4-0.1,0.6-0.1c0.1,0,0.1,0,0.2,0c0.2,0,0.4-0.1,0.6-0.1c0.1,0,0.3-0.1,0.4-0.1
				c0.1,0,0.1,0,0.2,0c-0.1-0.1-0.1-0.3-0.2-0.5c0-0.3,0.1-0.6,0.1-0.9c0-0.1,0-0.1,0.1-0.2c0.1-0.2,0.1-0.3,0-0.4
				c-0.1-0.1-0.2-0.3-0.3-0.4c-0.4-0.5-0.3-1-0.2-1.3c0-0.1,0.1-0.3,0-0.3c0,0-0.1-0.1-0.2-0.1c-0.2-0.2-0.8-0.7-0.4-1.4
				c0.1-0.2,0.3-0.5,0.5-0.7c0.1,0,0.1-0.1,0.2-0.1c0,0,0.1,0,0.1-0.1c0,0,0-0.1-0.2-0.2c-0.1-0.2-0.3-0.5-0.3-0.9
				c0-0.1,0-0.3,0-0.4c0-0.1,0-0.4,0-0.5c-0.1,0-0.2-0.1-0.3-0.1c-0.3-0.1-0.9-0.3-1-1c0-0.2,0-0.3-0.1-0.5c0-0.1,0-0.4-0.1-0.5
				c0,0-0.1,0-0.1-0.1c-0.2-0.1-0.4-0.2-0.6-0.4c-0.2-0.3-0.4-0.7-0.4-0.9c0-0.1,0-0.2-0.1-0.3c0-0.1,0-0.2-0.1-0.3l-0.1-0.1
				c-0.1-0.2-0.4-0.6-0.2-1.1c0-0.1,0.1-0.2,0.1-0.2c0,0-0.1-0.1-0.1-0.1c-0.1-0.1-0.3-0.2-0.4-0.4c-0.1-0.2-0.1-0.4-0.1-0.6
				c-0.1,0-0.2,0-0.2,0l-0.1,0c-0.1,0-0.2,0-0.2,0c0,0,0,0,0,0c-0.1,0.2-0.1,0.5-0.4,0.6c-0.3,0.2-0.6,0.1-0.8-0.2
				c-0.2-0.3-0.1-0.6,0.2-0.8c0,0,0,0,0-0.1c0-0.2,0.1-0.4,0.3-0.6c0.4-0.3,0.9-0.2,1.1-0.2l0.1,0c0.3,0,0.6,0.1,0.9,0.3
				c0.3,0.3,0.3,0.6,0.3,0.8c0,0,0,0.1,0,0.1c0,0,0.1,0,0.1,0.1c0.1,0.1,0.3,0.2,0.4,0.4c0.2,0.3,0.2,0.6,0.2,0.9
				c0,0.2-0.1,0.3-0.2,0.4c0,0,0,0,0,0l0.1,0.1c0.2,0.2,0.2,0.5,0.2,0.7c0,0.1,0,0.1,0,0.2c0.1,0.3,0.1,0.4,0.2,0.5
				c0,0,0.1,0,0.1,0.1c0.1,0,0.2,0.1,0.3,0.1c0.6,0.3,0.6,1,0.6,1.4c0,0.1,0,0.2,0,0.3c0,0.1,0,0.1,0,0.1c0,0,0.1,0.1,0.2,0.1
				c0.1,0,0.3,0.1,0.4,0.2c0.8,0.4,0.7,1.2,0.7,1.6c0,0.1,0,0.2,0,0.3c0,0.1,0.1,0.2,0.1,0.3c0.2,0.2,0.4,0.6,0.3,1.1
				c-0.1,0.4-0.3,0.6-0.5,0.7c0,0-0.1,0-0.1,0.1c-0.1,0.1-0.2,0.2-0.2,0.2c0,0,0.1,0,0.1,0.1c0.2,0.2,0.5,0.4,0.6,0.7
				c0.1,0.3,0,0.6,0,0.9c0,0.1,0,0.2,0,0.3c0.2,0.2,0.4,0.5,0.5,0.8c0.2,0.4,0.1,0.8,0,1.1c0,0.1,0,0.2-0.1,0.2
				c0,0.1-0.1,0.3-0.1,0.4c0,0,0,0,0,0c0.1,0.1,0.2,0.4,0.2,0.7c-0.1,0.8-0.9,0.9-1.3,1c-0.1,0-0.2,0-0.2,0
				c-0.3,0.1-0.6,0.1-0.8,0.2c-0.1,0-0.2,0-0.3,0c-0.1,0-0.2,0-0.3,0c0,0.1,0,0.1,0,0.2c0,0.2,0,0.4-0.1,0.6l0,0.1
				c0,0.2,0.1,0.4-0.1,0.7c-0.1,0.3-0.4,0.6-0.6,0.7c-0.2,0.1-0.5,0.2-0.6,0.2c0,0-0.1,0-0.1,0c0,0-0.1,0.1-0.1,0.1c0,0,0,0,0,0.1
				c0,0.2,0.1,0.4-0.1,0.7c-0.1,0.3-0.3,0.6-0.6,0.7C120.2,116,120.1,116,120,116z"/>
		</g>
	</g>
	<g id="SPLINE_55_">
		<g>
			<path d="M97.2,52.6c-0.2,0-0.3-0.1-0.4-0.2c-0.3-0.4-0.3-0.8-0.3-1.1l0-0.1c0-0.1-0.1-0.2-0.2-0.3c-0.3-0.4-0.5-0.6-0.6-1
				c0-0.1-0.1-0.2-0.4-0.3l-0.1,0c-0.3-0.2-0.7-0.3-0.9-0.7c-0.1-0.1-0.1-0.2-0.2-0.3C94,48.3,94,48.3,94,48.3
				c-0.2-0.1-0.5-0.2-0.8-0.2c-0.1,0-0.1,0-0.4,0.2c-0.2,0.2-0.6,0.2-0.8-0.1c-0.2-0.2-0.2-0.6,0.1-0.8c0.3-0.2,0.7-0.5,1.3-0.4
				c0.4,0.1,0.8,0.1,1.2,0.3c0.4,0.2,0.6,0.5,0.7,0.7c0,0.1,0.1,0.1,0.1,0.2c0.1,0.1,0.3,0.2,0.5,0.3l0.1,0c0.2,0.1,0.8,0.4,1,1
				c0.1,0.2,0.1,0.3,0.3,0.5c0.2,0.3,0.6,0.6,0.6,1.2c0,0.1,0,0.1,0,0.2c0,0.1,0,0.2,0,0.3c0.2,0.2,0.2,0.6-0.1,0.8
				C97.5,52.6,97.3,52.6,97.2,52.6z"/>
		</g>
	</g>
	<g id="SPLINE_54_">
		<g>
			<path d="M92.4,48.4c-0.3,0-0.5-0.2-0.6-0.5c-0.1-0.3-0.3-0.4-0.6-0.4c-0.1,0-0.3,0-0.4,0.1c-0.5,0.1-1.2,0.2-1.7-0.2
				c-0.1-0.1-0.2-0.2-0.3-0.2c-0.1-0.1-0.2-0.2-0.2-0.2c-0.1-0.1-0.3-0.1-0.5-0.1l-0.1,0c-0.2,0-0.5,0-0.8,0
				c-0.6-0.1-0.7-0.6-0.7-0.8c0,0,0-0.1,0-0.1c0,0-0.1,0-0.2-0.1l-0.1-0.1c-0.3-0.2-0.6-0.4-0.8-0.9c0-0.1,0-0.3-0.1-0.4
				c0-0.1,0-0.2,0-0.2c0,0-0.2-0.1-0.3-0.2c-0.1,0-0.1-0.1-0.2-0.1c-0.3-0.2-0.6-0.4-0.7-0.8c0-0.1-0.1-0.1-0.1-0.2
				c0-0.1-0.1-0.2-0.1-0.2c0,0-0.2,0-0.3,0c-0.3,0-0.8,0-1.1-0.4c-0.4-0.4-0.4-0.9-0.4-1.2c0-0.2,0-0.3,0-0.4c0,0-0.2,0-0.3,0
				c-0.3,0-0.7,0-1-0.3c-0.2-0.2-0.4-0.4-0.5-0.5c0,0-0.1-0.1-0.1-0.1c-0.1-0.1-0.2-0.2-0.3-0.3c-0.2-0.1-0.5-0.1-0.8-0.1
				c-0.3,0-0.5,0-0.8-0.1c-0.3-0.1-0.6-0.2-0.8-0.3c-0.3-0.2-0.5-0.5-0.6-0.7l-0.1-0.1c0,0,0,0-0.1-0.1c-0.1,0-0.1,0-0.2,0.1
				c0,0-0.1,0.1-0.1,0.1c-0.1,0.1-0.3,0.3-0.5,0.5c-0.3,0.2-0.8,0.2-1.2,0.1c-0.2-0.1-0.3-0.2-0.4-0.2c0,0-0.1,0-0.1-0.1
				c0,0,0,0,0,0c-0.1,0-0.1,0-0.2,0c-0.4,0-0.7-0.1-0.8-0.1c-0.3-0.1-0.3-0.1-0.4-0.1c-0.1,0.1-0.2,0.2-0.3,0.3
				c-0.1,0.3-0.3,0.7-1,0.8c-0.1,0-0.2,0-0.3,0c-0.1,0-0.3,0-0.3,0c0,0-0.1,0.2-0.1,0.3c-0.1,0.3-0.3,1-1.2,1c-0.2,0-0.3,0-0.5-0.1
				c-0.2,0-0.3-0.1-0.4,0c-0.2,0-0.3,0.1-0.4,0.2c-0.2,0.3-0.6,0.3-0.8,0.1c-0.3-0.2-0.3-0.6-0.1-0.8c0.3-0.4,0.7-0.6,1.2-0.7
				c0.3,0,0.6,0,0.8,0.1c0.1,0,0.2,0,0.3,0c0,0,0-0.1,0.1-0.2c0.1-0.3,0.2-0.6,0.6-0.9c0.3-0.2,0.6-0.2,0.8-0.2c0.1,0,0.1,0,0.2,0
				c0,0,0-0.1,0-0.1c0.2-0.4,0.5-0.8,0.9-0.9c0.5-0.2,0.9,0,1.2,0.1c0.2,0.1,0.3,0.1,0.3,0.1c0.2,0,0.4-0.1,0.6,0
				c0.2,0.1,0.4,0.2,0.5,0.3c0,0,0.1,0.1,0.1,0.1c0.1,0,0.2,0,0.3,0c0,0,0.1-0.1,0.2-0.2c0.1-0.1,0.1-0.1,0.2-0.2
				c0.3-0.3,0.7-0.5,1.2-0.4c0.4,0.1,0.8,0.3,1,0.7l0.1,0.2c0.1,0.2,0.1,0.2,0.1,0.2c0.1,0.1,0.3,0.1,0.5,0.2c0.2,0,0.4,0.1,0.7,0.1
				c0.3,0,0.7,0.1,1.1,0.2c0.4,0.1,0.7,0.4,0.9,0.7c0,0.1,0.1,0.1,0.1,0.2c0.1,0.1,0.1,0.2,0.2,0.2c0,0,0.2,0,0.4,0
				c0.4,0,0.9,0,1.3,0.6c0.2,0.3,0.2,0.7,0.2,1c0,0.2,0,0.4,0.1,0.4c0,0,0.2,0,0.3,0c0.3,0,0.7,0,1,0.3c0.2,0.2,0.3,0.5,0.4,0.7
				c0,0,0,0.1,0,0.1c0,0.1,0.1,0.2,0.3,0.3l0.1,0.1c0.2,0.1,0.5,0.3,0.7,0.6c0.1,0.3,0.2,0.5,0.2,0.7c0,0.1,0,0.1,0,0.2
				c0,0,0,0.1,0.2,0.2l0.1,0c0.2,0.1,0.5,0.3,0.7,0.6c0,0.1,0,0.1,0.1,0.2c0.1,0,0.2,0,0.3,0l0.2,0c0.4,0,0.8,0,1.2,0.2
				c0.2,0.1,0.3,0.2,0.4,0.4c0.1,0.1,0.1,0.1,0.2,0.2c0.2,0.1,0.4,0.1,0.8,0c0.2,0,0.3-0.1,0.5-0.1c0.9-0.1,1.6,0.4,1.8,1.3
				c0.1,0.3-0.1,0.6-0.4,0.7C92.5,48.4,92.4,48.4,92.4,48.4z"/>
		</g>
	</g>
	<g id="SPLINE_53_">
		<g>
			<path d="M50.2,49.9c-0.1,0-0.2,0-0.3-0.1c-0.3-0.1-0.4-0.5-0.2-0.8c0.2-0.4,0.4-0.8,0.5-1.2c0.1-0.3,0.1-0.5,0.2-0.7
				c0.1-0.1,0.1-0.2,0.2-0.4c0-0.1,0.1-0.1,0.1-0.2c0-0.1-0.1-0.3-0.1-0.4c-0.1-0.2-0.2-0.5-0.2-0.8c0-0.3,0-0.6,0.1-0.9
				c0.1-0.2,0.1-0.4,0.2-0.5c0-0.1,0.1-0.1,0.1-0.2c0,0,0-0.1,0-0.2c-0.1-0.3-0.2-0.7,0.2-1.2c0.3-0.4,1-0.9,1.7-0.7
				c0.1,0,0.1,0,0.2,0.1c0,0,0.1,0,0.1,0c0.1,0,0.2-0.1,0.3-0.1l0.1,0c0.5-0.2,0.9-0.2,1.3-0.1l0.1,0c0.3,0,0.7,0,0.9-0.1
				c0.1-0.1,0.2-0.3,0.3-0.4c0.1-0.1,0.2-0.3,0.3-0.4c0.5-0.6,1-0.6,1.6-0.6c0.1,0,0.2,0,0.3,0c0,0,0-0.1,0.1-0.1
				c0.1-0.1,0.2-0.2,0.3-0.3c0.3-0.2,0.6-0.2,0.9-0.2c0.1,0,0.2,0,0.2,0c0,0,0,0,0.1-0.1c0.1-0.1,0.3-0.3,0.5-0.4
				c0.3-0.1,0.5-0.1,0.7-0.1c0.7,0,1.1,0.3,1.5,0.6c0.1,0.1,0.3,0.1,0.6,0.1c0.1,0,0.3,0,0.4,0c0.5,0.1,0.7,0.3,1,0.5
				c0.1,0.1,0.2,0.2,0.3,0.2c0.1,0,0.1,0,0.2,0c0,0,0.1-0.1,0.1-0.1c0.1-0.1,0.2-0.1,0.3-0.2c0.3-0.2,0.7-0.3,1.1-0.2
				c0.2,0,0.4,0.1,0.5,0.2c0,0,0.1,0,0.1,0.1c0,0,0.1,0,0.2,0c0.3,0,0.8-0.1,1.1,0.3c0.2,0.2,0.2,0.6,0,0.8c-0.2,0.2-0.6,0.2-0.8,0
				c0,0-0.1,0-0.2,0c-0.2,0-0.5,0-0.8-0.1c-0.1,0-0.2-0.1-0.3-0.2c0,0-0.1,0-0.1-0.1c-0.1,0-0.2,0-0.2,0c0,0-0.1,0.1-0.1,0.1
				c-0.1,0.1-0.3,0.2-0.5,0.3c-0.4,0.1-0.8,0.1-1.1-0.1c-0.2-0.1-0.4-0.3-0.5-0.4c-0.2-0.2-0.3-0.2-0.4-0.3c-0.1,0-0.2,0-0.3,0
				c-0.4,0-0.8-0.1-1.2-0.4c-0.3-0.2-0.5-0.3-0.8-0.3c-0.1,0-0.2,0-0.3,0c0,0-0.1,0.1-0.1,0.1c-0.1,0.1-0.1,0.1-0.2,0.2
				c-0.3,0.3-0.7,0.3-1,0.3c-0.1,0-0.2,0-0.3,0c0,0,0,0.1-0.1,0.1c-0.1,0.1-0.2,0.2-0.3,0.3C58.6,41,58.2,41,58,41
				c-0.4,0-0.6,0.1-0.7,0.2c-0.1,0.1-0.1,0.2-0.2,0.3c-0.2,0.3-0.4,0.5-0.7,0.7c-0.5,0.3-1.1,0.3-1.5,0.3l-0.2,0
				c-0.4,0-0.6,0-0.9,0.1l-0.1,0c-0.2,0.1-0.4,0.1-0.6,0.2c-0.3,0-0.5,0-0.7-0.1c0,0-0.1,0-0.1,0c-0.1,0-0.3,0.1-0.5,0.3
				c0,0,0,0.1,0,0.2c0.1,0.2,0.1,0.6,0,0.9c0,0.1-0.1,0.2-0.2,0.3c-0.1,0.1-0.1,0.2-0.1,0.3c-0.1,0.2-0.1,0.4-0.1,0.5
				c0,0.1,0.1,0.2,0.1,0.4c0.1,0.3,0.4,0.8,0.2,1.3c-0.1,0.1-0.1,0.3-0.2,0.4c0,0.1-0.1,0.1-0.1,0.2c-0.1,0.2-0.1,0.4-0.2,0.6
				c-0.1,0.5-0.3,1-0.6,1.5C50.6,49.8,50.4,49.9,50.2,49.9z"/>
		</g>
	</g>
	<g id="SPLINE_52_">
		<g>
			<path d="M43.4,56.1c-0.1,0-0.2,0-0.3,0c-0.3,0-0.6-0.2-0.8-0.3c-0.2-0.1-0.3-0.1-0.4-0.1c-0.3,0-0.6-0.2-0.6-0.5
				c0-0.3,0.2-0.6,0.5-0.6c0.4,0,0.7,0.1,1,0.3c0.2,0.1,0.3,0.1,0.4,0.1c0.4,0,0.5,0,0.5,0c0.1-0.2,0.2-0.6,0.2-0.9
				C44,53.7,44,53.3,44,53c0,0,0-0.1-0.1-0.1c-0.1-0.1-0.1-0.3-0.2-0.5c0-0.3,0.1-0.6,0.2-0.8c0.2-0.5,0.6-0.8,0.9-1l0.1-0.1
				c0.4-0.4,0.9-0.6,1.5-0.8l0.2-0.1c0.4-0.1,0.6-0.2,0.9-0.3c0.1-0.1,0.1-0.1,0.2-0.2c0.3-0.3,0.6-0.6,1.1-0.7
				c0.5-0.1,0.9,0.1,1.3,0.2c0.1,0,0.2,0.1,0.3,0.1c0.3,0.1,0.5,0.4,0.4,0.7c-0.1,0.3-0.4,0.5-0.7,0.4c-0.1,0-0.2-0.1-0.4-0.1
				c-0.3-0.1-0.5-0.2-0.7-0.2c-0.1,0-0.3,0.2-0.5,0.3c-0.1,0.1-0.2,0.2-0.3,0.3c-0.4,0.4-0.9,0.5-1.3,0.6l-0.2,0.1
				c-0.4,0.1-0.8,0.3-1,0.5l-0.1,0.1c-0.3,0.2-0.5,0.4-0.6,0.7c-0.1,0.2-0.1,0.2-0.1,0.2c0,0,0,0.1,0,0.1c0,0.1,0.1,0.2,0.1,0.4
				c0.1,0.5,0,1-0.1,1.3c-0.1,0.4-0.2,0.8-0.3,1.2C44.4,56,43.8,56.1,43.4,56.1z"/>
		</g>
	</g>
	<g id="SPLINE_51_">
		<g>
			<path d="M32.8,72.3c-0.5,0-1-0.2-1.2-0.7c-0.1-0.1-0.1-0.2-0.4-0.2c-0.3,0-1,0-1.2-0.7c-0.1-0.4,0-1,0.2-1.3
				c0.1-0.2,0.2-0.3,0.4-0.4c0.1-0.1,0.1-0.1,0.1-0.1c0,0-0.1,0-0.1-0.1c-0.1-0.1-0.2-0.2-0.2-0.3c-0.2-0.2-0.6-0.9,0.2-1.7l0.1-0.1
				c0.2-0.2,0.2-0.2,0.2-0.3c0,0,0,0,0,0c-0.1,0-0.1-0.1-0.2-0.2c-0.2-0.3-0.2-0.6-0.2-0.8l0-0.1c0-0.1,0-0.2,0-0.3l-0.1,0
				c-0.2-0.2-0.5-0.4-0.6-0.9c-0.1-0.5,0.2-0.8,0.3-1.1l0.1-0.1c0.1-0.2,0.1-0.3,0.1-0.7c0-0.4,0.1-0.9,0.6-1.3
				c0.1-0.1,0.2-0.1,0.3-0.2c0.1-0.1,0.2-0.1,0.2-0.2c0.2-0.3,0.4-0.6,0.9-0.7c0.1,0,0.3-0.1,0.4-0.1c0.1,0,0.2,0,0.3-0.1
				c0.4-0.1,0.5-0.5,0.4-0.8c0-0.2-0.1-0.4-0.2-0.5l-0.1-0.1c-0.2-0.2-0.5-0.6-0.3-1.2c0.1-0.2,0.2-0.4,0.3-0.5
				c0.1-0.1,0.2-0.3,0.3-0.4c-0.2-0.1-0.5-0.2-0.7-0.5c0,0,0-0.1,0-0.1c0,0-0.1-0.1-0.1-0.1c-0.2-0.2-0.3-0.6-0.2-0.9
				c0.1-0.5,0.6-0.7,0.8-0.8c0.1,0,0.1,0,0.2-0.1l0.1-0.1c0.2-0.1,0.5-0.3,0.9-0.3c0.2,0,0.2,0,0.3,0l0.1,0c0.2-0.1,0.4-0.2,0.6-0.2
				c0.2,0,0.3,0,0.4,0.1c0.1,0,0.2,0,0.3,0c0.2,0,0.4,0,0.5-0.1c0-0.1,0-0.3,0.1-0.4c0.2-0.4,0.7-0.7,1.3-0.6c0.2,0,0.3,0.1,0.4,0.2
				c0.2,0.1,0.4,0.1,0.5,0.1c0.1,0,0.2,0,0.3,0c0.3,0,0.7,0.1,1,0.4c0.1,0.1,0.1,0.2,0.1,0.2c0,0,0,0,0,0l0.2,0.1
				c0.2,0.1,0.4,0.2,0.5,0.3c0.1,0.1,0.3,0.3,0.4,0.6c0,0.1,0,0.1,0,0.2c0,0,0,0,0.1,0c0.2,0.1,0.5,0.3,0.6,0.7
				c0.1,0.3-0.1,0.6-0.5,0.7c-0.3,0-0.6-0.1-0.6-0.4c0,0,0,0-0.1,0c-0.1-0.1-0.3-0.2-0.4-0.3c-0.2-0.2-0.2-0.4-0.2-0.5
				c-0.1-0.2-0.3-0.2-0.4-0.3L40,54c-0.1-0.1-0.3-0.1-0.4-0.3c-0.1-0.1-0.1-0.2-0.1-0.2c0,0-0.1,0-0.1,0c-0.2,0-0.3,0-0.3,0
				c-0.2,0-0.4,0-0.6-0.1c-0.2,0-0.3-0.1-0.4-0.2c0,0,0,0,0,0c0,0.2-0.1,0.5-0.5,0.8c-0.3,0.2-0.7,0.2-1,0.2c-0.2,0-0.3,0-0.5,0
				c-0.1,0-0.2,0-0.2,0c0,0-0.1,0-0.2,0.1l-0.1,0.1c-0.3,0.1-0.5,0.1-0.7,0.2c-0.2,0-0.3,0.1-0.5,0.2l-0.2,0.1
				c-0.1,0-0.2,0.1-0.2,0.1c0,0,0,0,0,0c0,0.1,0.1,0.1,0.1,0.2c0,0,0,0,0,0c0.2,0,0.4,0.1,0.6,0.4c0.4,0.7,0,1.4-0.3,1.8
				c-0.1,0.1-0.1,0.2-0.2,0.3c0,0,0,0,0,0l0.1,0.1c0.2,0.3,0.4,0.7,0.4,1.2c0.1,0.9-0.4,1.7-1.3,2c-0.2,0-0.3,0.1-0.5,0.1
				c-0.1,0-0.2,0-0.3,0c-0.1,0-0.1,0-0.2,0.2c-0.2,0.3-0.4,0.4-0.6,0.6c-0.1,0-0.1,0.1-0.2,0.1c-0.1,0.1-0.2,0.2-0.2,0.4
				c0,0.4,0,0.8-0.3,1.2c0,0.1-0.1,0.1-0.1,0.2C31,63.8,31,63.8,31,63.9C31,64,31,64,31.1,64l0.1,0.1c0.4,0.3,0.4,0.8,0.4,1
				c0,0.1,0,0.1,0,0.2c0,0,0,0,0,0.1c0.1,0,0.1,0.1,0.2,0.2c0.2,0.2,0.2,0.5,0.2,0.9c-0.1,0.5-0.3,0.8-0.6,1l-0.1,0.1
				c-0.1,0.2-0.2,0.2-0.2,0.2c0,0,0.1,0.1,0.1,0.1c0.2,0.2,0.6,0.5,0.4,1.2c-0.1,0.4-0.3,0.6-0.5,0.7c-0.1,0.1-0.1,0.1-0.2,0.1
				c0,0.1-0.1,0.2-0.1,0.3c0,0,0.1,0,0.1,0c0.5,0,1,0.1,1.4,0.7c0,0,0.1,0.1,0.3,0.1c0.3,0,0.6,0.2,0.6,0.5s-0.2,0.6-0.5,0.6
				C32.8,72.3,32.8,72.3,32.8,72.3z M31.6,65.6L31.6,65.6L31.6,65.6z M38,53.2C38,53.2,38,53.2,38,53.2C38,53.2,38,53.2,38,53.2z"/>
		</g>
	</g>
	<g id="SPLINE_50_">
		<g>
			<path d="M27.6,83.8c-0.2,0-0.3-0.1-0.4-0.2c-0.4-0.5-0.2-0.9-0.1-1.1c0,0,0-0.1,0.1-0.1c0-0.1,0-0.2,0.1-0.3c0-0.1,0-0.3,0.1-0.4
				c0.1-0.3,0.2-0.6,0.3-0.9c0.1-0.2,0.1-0.4,0.2-0.6c0.2-0.5,0.5-0.8,0.8-1c0.1-0.1,0.2-0.1,0.3-0.2c0,0,0,0,0-0.1
				c0-0.4,0.1-0.6,0.2-0.9c0.1-0.1,0.1-0.2,0.2-0.2c0.1-0.1,0.1-0.1,0.2-0.2c0,0,0,0,0-0.1c0-0.1,0-0.2,0-0.3c0-0.4,0.3-0.7,0.5-0.9
				c0,0,0.1-0.1,0.1-0.1c0,0,0,0,0,0c-0.1-0.2-0.3-0.4-0.3-0.8c0-0.4,0.2-0.7,0.3-0.9c0.1-0.2,0.3-0.5,0.6-0.6
				c0.1-0.1,0.2-0.1,0.3-0.2c0.1,0,0.1-0.1,0.2-0.1c0,0,0-0.1,0.1-0.2c0-0.1,0.1-0.1,0.1-0.2c0.1-0.3,0.4-0.5,0.6-0.7l0.1-0.1
				c0.1-0.1,0.2-0.2,0.2-0.2c0,0,0-0.1,0-0.1c0-0.1,0.1-0.3,0.2-0.5c0.2-0.3,0.5-0.4,0.8-0.2c0.3,0.2,0.4,0.5,0.2,0.8
				c0,0,0,0.1,0,0.1c0,0.1,0,0.3-0.1,0.4c-0.1,0.3-0.4,0.5-0.5,0.7l-0.1,0.1c-0.1,0.1-0.2,0.2-0.3,0.3c0,0,0,0.1-0.1,0.1
				c-0.1,0.2-0.2,0.4-0.4,0.7c-0.2,0.1-0.3,0.2-0.5,0.3c-0.1,0-0.1,0-0.1,0.1c0,0-0.1,0.1-0.1,0.2c0,0,0,0.1,0,0.1
				c-0.1,0.1-0.2,0.3-0.2,0.3c0,0,0,0,0.1,0.1c0.1,0.1,0.1,0.2,0.2,0.3c0.3,0.7-0.2,1.1-0.4,1.3c-0.1,0.1-0.2,0.1-0.2,0.2
				c0,0,0,0,0,0.1c0,0.2,0,0.4-0.1,0.7c-0.1,0.1-0.2,0.2-0.2,0.4c0,0.1-0.1,0.1-0.1,0.2c0,0.1-0.1,0.1-0.1,0.3c0,0.3,0,0.7-0.4,1.1
				c-0.1,0.1-0.2,0.2-0.4,0.3c-0.2,0.2-0.3,0.2-0.3,0.3c-0.1,0.2-0.2,0.5-0.2,0.7c-0.1,0.3-0.2,0.5-0.2,0.8c0,0.1,0,0.2,0,0.3
				c0,0.2,0,0.4-0.1,0.6c0,0.1-0.1,0.2-0.1,0.3c0.1,0.2,0,0.5-0.2,0.7C27.9,83.7,27.8,83.8,27.6,83.8z"/>
		</g>
	</g>
	<g id="SPLINE_49_">
		<g>
			<path d="M25.9,89.2c-0.2,0-0.3-0.1-0.4-0.2c-0.2-0.2-0.5-0.7-0.5-1.1c0-0.2,0.1-0.4,0.1-0.6c0-0.1,0.1-0.2,0-0.2c0,0,0,0-0.1,0
				c-0.1-0.1-0.3-0.2-0.4-0.4c-0.2-0.4-0.1-1,0-1.3c0.1-0.2,0.3-0.4,0.4-0.6c0.1-0.1,0.2-0.2,0.2-0.2c0.1-0.1,0.1-0.2,0.1-0.3
				c0.1-0.2,0.2-0.4,0.3-0.6c0.3-0.4,0.8-0.5,1.1-0.6c0.2,0,0.2-0.1,0.3-0.2c0.2-0.3,0.5-0.3,0.8-0.1c0.3,0.2,0.3,0.5,0.1,0.8
				c-0.3,0.4-0.7,0.6-1,0.6c-0.3,0.1-0.3,0.1-0.4,0.1c-0.1,0.1-0.1,0.2-0.2,0.3c-0.1,0.2-0.1,0.4-0.3,0.6c-0.1,0.1-0.2,0.3-0.3,0.4
				c-0.1,0.1-0.2,0.2-0.2,0.3c0,0.1,0,0.2,0,0.3c0,0,0,0,0.1,0c0.2,0.1,0.4,0.3,0.5,0.7c0.1,0.3,0,0.6-0.1,0.7c0,0.1,0,0.2,0,0.2
				c0,0.1,0.1,0.3,0.2,0.4c0.2,0.2,0.2,0.6,0,0.8C26.1,89.1,26,89.2,25.9,89.2z M25.7,86.2L25.7,86.2L25.7,86.2z"/>
		</g>
	</g>
	<g id="SPLINE_48_">
		<g>
			<path d="M27.3,103.9C27.3,103.9,27.2,103.9,27.3,103.9c-0.4-0.1-0.6-0.3-0.6-0.7c0-0.2,0-0.4,0-0.6l0-0.3c0,0,0-0.1-0.1-0.2
				c-0.1-0.1-0.1-0.1-0.2-0.2c-0.1-0.1-0.3-0.2-0.4-0.4c-0.4-0.4-0.3-0.8-0.3-1.1l0-0.1c0-0.1,0-0.4,0-0.4c0,0-0.1-0.1-0.2-0.1
				c-0.1,0-0.1-0.1-0.2-0.1c-0.2-0.1-0.7-0.5-0.6-1.2c0-0.1,0.1-0.3,0.1-0.4c0-0.1,0.1-0.2,0.1-0.3c0-0.2,0-0.4,0-0.5
				c0,0,0,0-0.1-0.1c-0.1,0-0.2-0.1-0.2-0.2c-0.6-0.5-0.4-1.2-0.2-1.6c0-0.1,0.1-0.3,0.1-0.3c0,0-0.1-0.1-0.1-0.2
				c-0.1-0.2-0.2-0.4-0.2-0.8c0-0.3,0.1-0.5,0.1-0.7c0-0.1,0-0.1,0.1-0.2c0-0.1,0-0.1-0.1-0.3l0-0.1c-0.4-0.6-0.1-1.1,0.1-1.4
				l0.1-0.2c0.1-0.2,0.2-0.3,0.2-0.5c0,0,0-0.1,0-0.2c0-0.2-0.1-0.4-0.1-0.6c0.1-0.4,0.3-0.6,0.5-0.9c0-0.1,0.1-0.1,0.1-0.2
				c0-0.1,0.1-0.1,0.1-0.3c0.1-0.2,0.1-0.3,0.2-0.4c0.2-0.3,0.5-0.4,0.8-0.2c0.3,0.2,0.4,0.5,0.2,0.8c0,0.1-0.1,0.2-0.1,0.2
				c-0.1,0.2-0.1,0.4-0.3,0.6c-0.1,0.1-0.1,0.2-0.2,0.2c-0.1,0.1-0.2,0.3-0.2,0.3c0,0,0,0.1,0,0.1c0,0.2,0.1,0.4,0.1,0.6
				c-0.1,0.3-0.2,0.6-0.4,0.9l-0.1,0.2c-0.1,0.2-0.1,0.2-0.1,0.3l0,0.1c0.2,0.3,0.3,0.6,0.2,1.1c0,0.1-0.1,0.2-0.1,0.3
				c0,0.1-0.1,0.2-0.1,0.3c0,0,0.1,0.1,0.1,0.2c0.1,0.2,0.2,0.3,0.2,0.6c0,0.3-0.1,0.6-0.1,0.9c0,0.1-0.1,0.3-0.1,0.4
				c0,0,0.1,0,0.1,0c0.2,0.1,0.4,0.3,0.6,0.6c0.1,0.3,0.2,0.7,0.1,1.1c0,0.2-0.1,0.4-0.1,0.6c0,0.1-0.1,0.1-0.1,0.2c0,0,0,0,0.1,0.1
				c0,0,0.1,0.1,0.1,0.1c0.2,0.1,0.4,0.3,0.6,0.5c0.2,0.3,0.3,0.9,0.2,1.3l0,0.1c0,0,0,0.1,0,0.1c0.1,0.1,0.2,0.2,0.3,0.3
				c0.1,0.1,0.2,0.1,0.2,0.2c0.2,0.2,0.6,0.5,0.5,1.1l0,0.3c0,0.3,0,0.5-0.1,0.8C27.8,103.7,27.6,103.9,27.3,103.9z"/>
		</g>
	</g>
	<g id="SPLINE_47_">
		<g>
			<path d="M21,121.2c-0.1,0-0.3,0-0.4-0.1c-0.3-0.2-0.4-0.5-0.5-0.7c-0.1-0.2-0.2-0.3-0.3-0.4c-0.1,0-0.2-0.1-0.3-0.1
				c-0.4-0.1-1-0.3-1.2-1c-0.2-0.6-0.4-1.5,0.5-2.1c0.1,0,0.1-0.1,0.2-0.1c-0.1,0-0.1,0-0.2,0c-0.3-0.1-0.5-0.4-0.6-0.5
				c0,0-0.1-0.1-0.1-0.1c0,0-0.1,0-0.1,0c-0.1-0.1-0.4-0.2-0.5-0.4c-0.4-0.6-0.2-1.1,0-1.4c0-0.1,0.1-0.2,0.1-0.3
				c-0.1-0.3-0.2-0.8,0.3-1.2c0.1-0.1,0.2-0.2,0.3-0.2c0.1-0.1,0.2-0.1,0.2-0.2c0,0,0-0.1,0-0.3c0-0.1,0-0.1-0.1-0.2
				c-0.1-0.2-0.2-0.5-0.2-0.8c0-0.3,0.2-0.4,0.2-0.6c0,0,0.1-0.1,0.1-0.1c0,0,0-0.1,0-0.2c0-0.2,0-0.4,0.1-0.7
				c0.3-0.6,0.8-1.1,1.5-1.1l0.2,0c0.1,0,0.2,0,0.3,0c0,0,0.1-0.1,0.1-0.1c0.1-0.1,0.1-0.2,0.2-0.3c0,0,0.1-0.1,0.1-0.2
				c0,0,0.1-0.1,0.1-0.1l0,0c0-0.1-0.1-0.2-0.1-0.2c0,0,0-0.1,0-0.1c0,0,0,0,0,0c-0.1-0.1-0.4-0.3-0.5-0.6c-0.1-0.2,0-0.5,0-0.6
				c0-0.1,0-0.1,0-0.1c0-0.1,0-0.1,0-0.2c0-0.2-0.1-0.4,0-0.7c0.1-0.3,0.3-0.6,0.5-0.8l0.1-0.2c0.1-0.2,0.4-0.5,0.9-0.5
				c0.2,0,0.3,0,0.5,0.1c0,0,0.1,0,0.1,0c0.1-0.1,0.1-0.1,0.1-0.1c0.2-0.2,0.6-0.3,1-0.3c0.2,0,0.3,0.1,0.4,0.1c0,0,0.1,0,0.1,0
				c0,0,0,0,0.1,0c0.2-0.1,0.5-0.2,0.9-0.1c0.2,0.1,0.3,0.2,0.4,0.3c0,0,0,0,0,0c0,0,0.1-0.1,0.1-0.1c0,0,0-0.1,0.1-0.1
				c0.1-0.1,0.3-0.4,0.6-0.5c0.3-0.1,0.5-0.1,0.9-0.1c0.3,0,0.5,0.3,0.5,0.6c0,0.3-0.3,0.5-0.6,0.5c-0.2,0-0.4,0-0.4,0c0,0,0,0,0,0
				c-0.1,0.1-0.1,0.2-0.2,0.2c-0.2,0.2-0.7,0.4-1.1,0.4c-0.4,0-0.6-0.2-0.7-0.4c0,0,0,0,0,0c0,0,0,0,0,0c-0.1,0-0.2,0.1-0.3,0.1
				c-0.3,0.1-0.5,0-0.7-0.1c0,0-0.1,0-0.1,0c-0.1,0-0.2,0-0.2,0c0,0,0,0,0,0.1c-0.1,0.1-0.4,0.4-0.8,0.4c-0.2,0-0.3,0-0.4-0.1
				c0,0-0.1,0-0.1,0c0,0-0.1,0.1-0.1,0.1c0,0.1-0.1,0.1-0.1,0.1l-0.1,0.1c-0.1,0.1-0.2,0.2-0.2,0.3c0,0.1,0,0.2,0,0.3
				c0,0.1,0,0.2,0,0.3c0,0.2,0,0.3-0.1,0.4c0,0,0,0,0,0c0.1,0.1,0.3,0.2,0.4,0.4c0,0.1,0.1,0.2,0.1,0.3c0,0,0,0.1,0,0.1
				c0.1,0.2,0.2,0.3,0.2,0.6c0,0.4-0.3,0.7-0.5,0.9c0,0-0.1,0.1-0.1,0.1c0,0-0.1,0.1-0.1,0.1c-0.1,0.2-0.2,0.4-0.5,0.5
				c-0.3,0.2-0.7,0.2-0.9,0.2l-0.1,0c0,0,0,0,0,0c-0.1,0-0.3,0.2-0.5,0.5c0,0,0,0.1,0,0.2c0,0.1,0,0.3,0,0.4c0,0.2-0.1,0.4-0.2,0.5
				c0,0-0.1,0.1-0.1,0.1c0,0,0.1,0.1,0.1,0.2c0,0.1,0.1,0.2,0.1,0.3c0.1,0.2,0.2,0.8-0.1,1.2c-0.1,0.2-0.3,0.3-0.4,0.4
				c-0.1,0-0.1,0.1-0.2,0.1c0,0,0,0.2,0,0.2c0.1,0.4-0.1,0.7-0.2,1c0,0.1-0.1,0.2-0.1,0.3c0,0,0,0,0.1,0c0.1,0,0.2,0.1,0.4,0.2
				c0.2,0.1,0.2,0.3,0.3,0.4c0,0,0,0,0,0c0.1,0,0.2-0.1,0.3-0.1c0.5-0.1,1.1,0.1,1.3,0.7c0.1,0.4-0.1,1.1-0.5,1.4
				c-0.2,0.2-0.5,0.1-0.6,0.1c0,0-0.1,0-0.1,0c-0.2,0.1-0.2,0.2,0,0.9c0,0.1,0.3,0.2,0.4,0.2c0.1,0,0.3,0.1,0.4,0.1
				c0.5,0.2,0.7,0.6,0.8,0.9c0.1,0.2,0.1,0.3,0.2,0.4c0.2,0.2,0.3,0.6,0.1,0.8C21.3,121.1,21.2,121.2,21,121.2z"/>
		</g>
	</g>
	<g id="SPLINE_46_">
		<g>
			<path d="M29.3,134.4c-0.1,0-0.1,0-0.2,0c-0.4,0-0.7-0.3-0.8-0.4c0,0,0-0.1-0.1-0.1c0,0-0.2,0-0.3,0.1c-0.1,0-0.3,0-0.4,0
				c-0.3,0-0.7,0-1.1-0.1c-0.3-0.1-0.4-0.2-0.6-0.3c-0.1-0.1-0.1-0.1-0.2-0.1c-0.1,0-0.3,0-0.5,0c-0.1,0-0.3,0.1-0.4,0.2
				c-0.1,0.1-0.2,0.1-0.3,0.2c-0.3,0.2-0.7,0.3-1.1,0.4c-0.4,0.1-0.8,0.1-1.2,0.1c-0.7-0.1-0.8-0.7-0.9-1c0,0,0,0-0.1,0
				c-0.1,0-0.2-0.1-0.3-0.1c-0.5-0.3-0.5-0.8-0.5-1c0,0,0-0.1,0-0.1c0,0-0.1-0.1-0.2-0.2c-0.1-0.1-0.3-0.3-0.3-0.5
				c-0.1-0.2-0.1-0.5-0.1-0.7c0-0.1,0-0.2,0-0.2c0,0-0.1-0.1-0.2-0.1c-0.2-0.1-0.5-0.3-0.6-0.6c-0.1-0.2-0.1-0.5-0.1-0.6
				c0-0.1,0-0.1,0-0.2c0,0-0.2-0.1-0.3-0.1l-0.1,0c-0.1-0.1-0.3-0.1-0.4-0.2c-0.1-0.1-0.3-0.1-0.4-0.2c-0.1,0-0.2,0-0.3,0
				c-0.2,0-0.4,0-0.7-0.1c-0.2-0.1-0.3-0.2-0.4-0.3c0,0,0,0-0.1-0.1c0,0,0,0-0.2,0l-0.1,0c-0.5-0.1-1.1-0.2-1.4-0.7
				c-0.1-0.2-0.2-0.5-0.1-1c0.1-0.3,0.1-0.5,0-0.5c-0.1-0.1-0.2-0.3-0.2-0.7c0-0.2,0.1-0.3,0.1-0.4c0,0,0-0.1,0-0.1c0,0,0,0-0.1-0.1
				l-0.1-0.1c-0.3-0.4-0.5-0.8-0.4-1.3c0.1-0.5,0.5-1.2,1.9-1.4l0.1,0c0.3,0,0.3-0.1,0.4-0.1c0.1-0.1,0.1-0.2,0.2-0.3
				c0.1-0.2,0.3-0.4,0.6-0.6c0.3-0.2,0.6-0.2,0.8-0.2c0.1,0,0.1,0,0.2,0c0.1,0,0.1-0.1,0.2-0.1c0.2-0.1,0.5-0.3,0.8-0.4
				c0.6-0.1,1.1-0.1,1.5,0.3c0.2,0.2,0.2,0.2,0.4,0.1c0.3-0.1,0.6,0.1,0.7,0.4c0.1,0.3-0.1,0.6-0.4,0.7c-0.7,0.2-1.1-0.1-1.4-0.4
				c-0.1-0.1-0.2-0.1-0.5-0.1c-0.1,0-0.3,0.1-0.4,0.2c-0.1,0.1-0.2,0.1-0.2,0.1c-0.3,0.2-0.5,0.2-0.8,0.2l-0.1,0c0,0-0.1,0-0.1,0
				c0,0-0.1,0.2-0.2,0.3c-0.1,0.1-0.2,0.3-0.3,0.4c-0.4,0.4-0.7,0.4-1.1,0.5l-0.1,0c-0.2,0-0.9,0.2-1,0.5c0,0.2,0,0.3,0.1,0.3
				l0.1,0.1c0.2,0.2,0.5,0.5,0.4,1.1c0,0.1-0.1,0.2-0.1,0.2c0,0,0,0,0,0c0,0,0,0,0,0c0.3,0.5,0.2,1,0.1,1.4c0,0.1,0,0.1,0,0.1
				c0.1,0.1,0.5,0.2,0.7,0.2l0.1,0c0.2,0,0.4,0.1,0.6,0.2c0.1,0.1,0.2,0.1,0.2,0.2c0,0,0,0,0.1,0.1c0,0,0.2,0,0.3,0
				c0.2,0,0.4,0,0.6,0.1c0.2,0.1,0.4,0.1,0.5,0.2c0.1,0.1,0.2,0.1,0.3,0.1l0.1,0c0.3,0.1,0.7,0.3,1,0.7c0.2,0.3,0.1,0.5,0.1,0.7
				c0,0.1,0,0.1,0,0.2c0,0,0.1,0.1,0.2,0.1c0.1,0.1,0.3,0.2,0.5,0.4c0.2,0.3,0.2,0.6,0.2,0.8c0,0.1,0,0.2,0,0.2
				c0,0.1,0.1,0.1,0.2,0.2c0.2,0.2,0.4,0.4,0.4,0.8c0,0.1,0,0.2,0,0.4c0,0,0,0,0,0c0,0,0,0,0.1,0c0.2,0.1,0.6,0.2,0.8,0.8
				c0,0.1,0,0.2,0.1,0.2c0.2,0,0.4,0,0.7-0.1c0.3-0.1,0.6-0.2,0.8-0.3c0.1,0,0.2-0.1,0.3-0.1c0.2-0.1,0.4-0.2,0.7-0.3
				c0.2-0.1,0.7-0.1,1.2,0c0.2,0.1,0.4,0.2,0.5,0.3c0.1,0.1,0.1,0.1,0.2,0.1c0.2,0.1,0.4,0,0.6,0c0.1,0,0.2,0,0.3,0
				c0.2,0,0.5-0.1,0.8,0c0.3,0.1,0.5,0.3,0.7,0.4c0,0,0.1,0.1,0.1,0.1c0.2,0,0.6,0,0.7-0.1c0,0,0-0.1,0-0.1c0.1-0.2,0.2-0.4,0.3-0.6
				c0.1-0.1,0.3-0.2,0.4-0.3c0.1-0.1,0.2-0.2,0.4-0.3c0.1-0.1,0.1-0.2,0.2-0.4c0-0.2,0.1-0.4,0.2-0.6c0.1-0.2,0.4-0.6,0.6-0.9
				c0.4-0.4,0.9-0.4,1.2-0.4c0.1,0,0.1,0,0.2,0c0.3,0,0.4,0,0.5-0.2c0.2-0.2,0.6-0.2,0.8,0c0.2,0.2,0.2,0.6,0,0.8
				c-0.4,0.4-0.8,0.5-1.4,0.5c-0.1,0-0.2,0-0.2,0c-0.1,0-0.2,0-0.2,0c-0.1,0.1-0.3,0.4-0.4,0.7c-0.1,0.1-0.1,0.2-0.1,0.3
				c-0.1,0.2-0.2,0.6-0.4,0.8c-0.2,0.2-0.3,0.3-0.5,0.4c-0.1,0.1-0.2,0.2-0.3,0.3c0,0-0.1,0.1-0.1,0.2c-0.1,0.2-0.2,0.6-0.6,0.7
				C30.1,134.4,29.7,134.4,29.3,134.4z"/>
		</g>
	</g>
	<g id="SPLINE_45_">
		<g>
			<path d="M40.1,133.2c-0.2,0-0.5,0-0.8-0.3l-0.1-0.1c-0.2-0.1-0.4-0.2-0.5-0.5c-0.2-0.4-0.1-0.7,0-0.9c0,0,0,0,0,0
				c-0.1-0.1-0.3-0.2-0.3-0.5c0,0,0,0-0.1,0c0,0.1-0.1,0.2-0.2,0.3c-0.2,0.3-0.6,0.3-0.8,0.3l-0.2,0c-0.1,0-0.2,0-0.4,0
				c0,0,0,0.1-0.1,0.1c-0.2,0.3-0.4,0.5-0.8,0.7c-0.2,0.1-0.8,0.3-1.2-0.1c-0.1-0.1-0.1-0.2-0.2-0.2c-0.5-0.1-0.8-0.4-0.8-0.8
				c-0.1-0.4,0.1-0.6,0.2-0.8c0,0,0-0.1,0-0.1c-0.1-0.1-0.2-0.3-0.2-0.6c0-0.3,0.2-0.6,0.5-0.6c0.3,0,0.6,0.2,0.6,0.5
				c0.1,0.2,0.3,0.5,0.2,0.9c0,0.1-0.1,0.3-0.1,0.4c0.1,0,0.3,0.1,0.5,0.2c0,0,0.1,0.1,0.1,0.1c0.1,0,0.1-0.1,0.3-0.3l0-0.1
				c0.1-0.1,0.2-0.4,0.6-0.5c0.2,0,0.4-0.1,0.6-0.1l0.2,0c0.1-0.2,0.3-0.4,0.5-0.5c0.3-0.1,0.6-0.2,1-0.1c0.4,0.1,0.7,0.3,0.7,0.8
				c0.1,0.1,0.3,0.3,0.4,0.5c0.1,0.3,0,0.5-0.1,0.7c0.1,0.1,0.2,0.1,0.2,0.2c0,0,0.1,0,0.2,0c0.2,0,0.4-0.1,0.4-0.1c0,0,0,0,0-0.1
				c0.1-0.2,0.3-0.4,0.6-0.5c0.2,0,0.4,0,0.5,0c0,0,0.1,0,0.2,0c0.2,0,0.4-0.1,0.6-0.1l0.1-0.1c0.2-0.1,0.4-0.2,0.7-0.2
				c0.4,0,0.7,0.1,0.9,0.5c0.1,0,0.4,0,0.6,0c0.1,0,0.2,0,0.3,0c0.3,0,0.6,0,0.9,0.2c0.1,0,0.1,0.1,0.2,0.1c0,0,0.1,0.1,0.1,0.1
				c0.4,0,0.8-0.2,1.2-0.4c0.6-0.3,1.2-0.2,1.6,0c0.1,0,0.2,0.1,0.4,0.1l0.2,0c0.2,0,0.4,0.1,0.6,0.1c0.1,0,0.2,0.1,0.3,0.1
				c0,0,0.1-0.2,0.1-0.3c0-0.1-0.1-0.3-0.1-0.4c0-0.2,0.1-0.4,0.2-0.5l0-0.1c0.1-0.1,0.1-0.3,0.1-0.5c0,0,0-0.1,0-0.1
				c-0.1-0.1-0.2-0.2-0.2-0.3c-0.2-0.4,0.1-0.8,0.2-1.1c0,0,0-0.1,0.1-0.1c0.1-0.2,0.2-0.3,0.3-0.5c0.1-0.1,0.1-0.2,0.2-0.3
				c0.1-0.2,0.3-0.5,0.6-0.6c0.2-0.1,0.4-0.1,0.5-0.1h0c0.1,0,0.2-0.1,0.4-0.4c0.2-0.3,0.5-0.4,0.8-0.2c0.3,0.2,0.4,0.5,0.2,0.8
				c-0.3,0.5-0.7,0.8-1.2,0.9c-0.1,0-0.2,0-0.2,0c0,0,0,0,0,0c-0.1,0.2-0.2,0.3-0.3,0.5c-0.1,0.1-0.2,0.3-0.2,0.4
				c0,0.1-0.1,0.1-0.1,0.2c0,0,0,0.1-0.1,0.1c0,0.1,0.1,0.1,0.1,0.2c0.1,0.2,0.1,0.5,0.1,0.6c0,0.4-0.1,0.7-0.2,0.9l-0.1,0.1
				c0,0,0,0.1,0,0.1c0,0.1,0.1,0.3,0.1,0.4c0,0.4-0.3,0.9-0.6,1.1c-0.5,0.3-0.9,0.2-1.2,0.1c-0.2-0.1-0.4-0.1-0.5-0.1l-0.2,0
				c-0.2,0-0.3-0.1-0.4-0.1c-0.4-0.1-0.6-0.2-0.8-0.1c-0.5,0.2-1,0.5-1.6,0.5c-0.4,0-0.6-0.1-0.8-0.2l-0.1-0.1c-0.1,0-0.2,0-0.4,0
				c-0.1,0-0.2,0-0.3,0c-0.4,0-1.1,0.1-1.5-0.4c0,0,0-0.1-0.1-0.1c0,0-0.1,0-0.2,0.1l-0.2,0.1c-0.3,0.1-0.6,0.2-0.9,0.2
				c-0.1,0-0.2,0-0.4,0c0,0,0,0-0.1,0c-0.1,0.1-0.2,0.3-0.4,0.4c-0.2,0.1-0.5,0.2-0.9,0.3C40.3,133.2,40.2,133.2,40.1,133.2z
				 M39.5,130.7C39.5,130.7,39.5,130.7,39.5,130.7C39.5,130.7,39.5,130.7,39.5,130.7z M34.1,130.5L34.1,130.5L34.1,130.5z M35,129.8
				L35,129.8L35,129.8z"/>
		</g>
	</g>
	<g id="SPLINE_44_">
		<g>
			<path d="M58.4,130.6c-0.2,0-0.4,0-0.6-0.2c-0.2-0.1-0.3-0.3-0.4-0.4c0,0-0.1-0.1-0.1-0.1c0,0-0.1,0-0.2,0c-0.3,0-0.8-0.1-1-0.7
				c-0.2-0.4,0-0.8,0.1-1.1c0,0,0-0.1,0-0.1c-0.1,0-0.3,0-0.3,0c-0.1,0-0.2,0-0.2,0c-0.4,0-0.7,0-1-0.1c-0.4-0.2-0.5-0.4-0.5-0.6
				c0,0,0,0,0,0l-0.1,0c-0.2,0-0.5,0-0.8-0.1c-0.3-0.1-0.4-0.4-0.3-0.7c0.1-0.3,0.4-0.4,0.7-0.3c0.1,0,0.2,0,0.4,0l0.1,0
				c0.3,0,0.9,0,1.1,0.5c0,0.1,0,0.1,0.1,0.2c0.1,0,0.2,0,0.4,0c0,0,0.1,0,0.2,0c0.4-0.1,1.4-0.2,1.6,0.7c0.1,0.4,0,0.7-0.1,0.9
				c0,0,0,0.1-0.1,0.2c0,0,0.1,0,0.1,0c0.2,0,0.6,0.1,0.8,0.3c0.1,0.1,0.2,0.2,0.2,0.3c0,0,0,0.1,0.1,0.1c0,0,0.1,0,0.1-0.1l0.1-0.1
				c0.4-0.2,0.9-0.3,1.5-0.3l0.1,0c0.1,0,0.2,0,0.3,0c0,0,0.1-0.1,0.1-0.1c0-0.1,0.1-0.1,0.1-0.2c0.2-0.2,0.4-0.4,0.7-0.5
				c0,0,0,0,0,0c0,0,0,0,0-0.1c0-0.2-0.1-0.5,0.1-0.8c0.1-0.1,0.2-0.2,0.3-0.3c0,0,0,0,0.1-0.1c0,0-0.1-0.1-0.1-0.1
				c-0.1-0.2-0.3-0.5-0.3-0.9c0-0.3,0.1-0.6,0.2-0.8c0.2-0.3,0.5-0.4,0.6-0.5l0.1,0c0,0,0,0,0,0c0.1-0.3,0.2-0.4,0.3-0.5
				c0,0,0.1-0.1,0.1-0.1l0-0.1c0.1-0.2,0.2-0.4,0.5-0.6c0.3-0.2,0.6-0.2,0.9-0.2c0.3,0,0.6,0.1,0.9,0.3c0.1,0.1,0.1,0.1,0.2,0.1
				c0.2,0,0.4,0,0.6,0c0.3,0,0.5,0,0.8,0c0.3,0,0.7,0.2,1,0.4c0,0,0,0,0,0c0,0,0.1-0.1,0.1-0.2c0.1-0.1,0.2-0.5,0.5-0.6
				c0.2-0.1,0.4-0.1,0.7,0.1c0.2,0.1,0.3,0.1,0.4,0.1c0,0,0.1,0,0.2-0.1c0.1-0.1,0.3-0.1,0.5-0.2c0.3-0.1,0.6,0.1,0.8,0.2
				c0,0,0.1,0,0.1,0.1c0.2,0.1,0.3,0,0.5,0c0.3-0.1,0.6,0,0.7,0.3c0.1,0.3,0,0.6-0.3,0.7c-0.4,0.2-0.9,0.2-1.3,0.1
				c-0.1,0-0.2-0.1-0.2-0.1c-0.1,0-0.1-0.1-0.2-0.1c0,0-0.1,0-0.1,0.1c-0.1,0.1-0.3,0.1-0.5,0.2c-0.3,0-0.6,0-0.8-0.1
				c-0.2,0.3-0.3,0.5-0.6,0.7c-0.6,0.4-1,0-1.2-0.1c-0.2-0.2-0.3-0.2-0.5-0.2c-0.2,0-0.4,0-0.6,0c-0.2,0-0.5,0-0.8,0
				c-0.4,0-0.6-0.2-0.9-0.4c-0.2,0-0.3,0-0.4,0.1c0,0,0,0.1-0.1,0.1l0,0.1c-0.1,0.1-0.1,0.2-0.2,0.3c0,0,0,0-0.1,0.1
				c-0.1,0.3-0.2,0.6-0.6,0.8c-0.1,0-0.1,0-0.2,0.1c0,0,0,0,0,0c0,0.1,0,0.2,0,0.2c0,0,0.1,0.1,0.1,0.1c0.1,0.2,0.4,0.5,0.3,1
				c0,0.3-0.3,0.5-0.4,0.7c0,0-0.1,0-0.1,0.1c0,0,0,0,0,0c0,0.1,0,0.3,0,0.5c0,0.3-0.2,0.6-0.8,0.8c-0.1,0-0.2,0.1-0.3,0.2
				c0,0-0.1,0.1-0.1,0.1c-0.1,0.2-0.3,0.4-0.6,0.5c-0.3,0.1-0.6,0.1-0.8,0.1l-0.1,0c-0.3,0-0.6,0.1-1,0.2l-0.2,0.1
				C58.8,130.5,58.6,130.6,58.4,130.6z"/>
		</g>
	</g>
	<g id="SPLINE_43_">
		<g>
			<path d="M95.9,129.7c-0.2,0-0.5,0-0.7-0.1c-0.2,0-0.4-0.1-0.6,0c-0.5,0-1.1,0-1.7-0.1c-0.3-0.1-0.5-0.4-0.4-0.7
				c0.1-0.3,0.4-0.5,0.7-0.4c0.4,0.1,0.9,0.1,1.3,0.1c0.3,0,0.5,0,0.8,0.1c0.2,0,0.5,0.1,0.7,0c0.4,0,0.5-0.4,0.7-1.2
				c0-0.2,0.1-0.3,0.1-0.5c0.1-0.5,0.4-0.7,0.6-0.8c0.2-0.1,0.5-0.2,1-0.1c0.1,0,0.1,0,0.2,0.1c0.1,0,0.2,0.1,0.2,0.1
				c0.1,0,0.2-0.1,0.4-0.1l0.2-0.1c0.4-0.2,0.9-0.4,1.5-0.2c0.2,0,0.3,0.1,0.5,0.2c0.1,0,0.1,0.1,0.2,0.1c0.2,0.1,0.4,0.1,0.7,0.2
				c0.1,0,0.1,0,0.2,0c0.2,0,0.5,0,0.8,0.1c0.2,0.1,0.3,0.2,0.5,0.3c0.1,0,0.1,0.1,0.2,0.1c0.1,0.1,0.3,0,0.6-0.1
				c0.1-0.1,0.3-0.1,0.4-0.2c0.3-0.1,0.6,0.1,0.7,0.3c0.1,0.3-0.1,0.6-0.3,0.7c-0.1,0-0.2,0.1-0.3,0.1c-0.4,0.2-1,0.5-1.7,0.1
				c-0.1-0.1-0.2-0.2-0.3-0.2c-0.1-0.1-0.1-0.1-0.2-0.1c-0.1,0-0.2,0-0.4-0.1c-0.1,0-0.2,0-0.3,0c-0.4,0-0.7-0.1-1-0.2
				c-0.1,0-0.2-0.1-0.3-0.1c-0.1,0-0.2-0.1-0.3-0.1c-0.2,0-0.3,0-0.6,0.2l-0.2,0.1c-0.2,0.1-0.5,0.2-0.8,0.2c-0.3,0-0.5-0.1-0.6-0.1
				c0,0-0.1,0-0.1,0c-0.1,0-0.1,0-0.1,0c0,0,0,0,0,0.1c0,0.1-0.1,0.3-0.1,0.4c-0.2,0.8-0.4,2-1.7,2.1
				C96.1,129.7,96,129.7,95.9,129.7z"/>
		</g>
	</g>
	<g>
		<path class="st0" d="M76.3,125.8l-0.5,2.2c0,0,0,1.8,0,2c0,0.2,0.5,1.2,0.5,1.2l5.8-2.8c0,0-0.7-4-0.9-4"/>
	</g>
	<g id="SPLINE_42_">
		<g>
			<path d="M105.1,127.4c-0.2,0-0.5-0.1-0.5-0.4c-0.1-0.3,0-0.6,0.3-0.7c0.1,0,0.2-0.1,0.3-0.1c0.1,0,0.2-0.1,0.2-0.1
				c0,0,0-0.2,0-0.3l0-0.1c0.1-0.6,0.4-0.9,0.9-1c0.4,0,0.7,0.2,0.9,0.3c0.1,0,0.1,0.1,0.2,0.1c0.1,0.1,0.4,0,0.6,0
				c0.3,0,0.6-0.1,1,0c0.3,0.1,0.5,0.2,0.7,0.4l0.1,0.1c0.2,0.1,0.4,0.2,0.7,0.2c0.3,0,0.5,0.3,0.5,0.6c0,0.3-0.3,0.5-0.6,0.5
				c-0.4,0-0.8-0.2-1.2-0.4l-0.2-0.1c-0.1-0.1-0.3-0.2-0.4-0.2c-0.1,0-0.3,0-0.6,0c-0.4,0.1-0.8,0.1-1.3-0.1c-0.1,0-0.1-0.1-0.2-0.1
				c0,0-0.1,0-0.1,0c0,0.3-0.1,0.6-0.3,0.9c-0.2,0.3-0.6,0.4-0.8,0.4c-0.1,0-0.1,0-0.2,0C105.2,127.4,105.2,127.4,105.1,127.4z
				 M106.4,125.9L106.4,125.9L106.4,125.9z"/>
		</g>
	</g>
	<g id="SPLINE_41_">
		<g>
			<path d="M116,130.2c-0.2,0-0.3,0-0.5-0.1c-0.1,0-0.2-0.1-0.3-0.1c-0.2-0.1-0.4-0.2-0.6-0.2c-0.4-0.1-0.8-0.2-1.1-0.5
				c-0.1-0.1-0.2-0.2-0.2-0.3c-0.1-0.1-0.2-0.2-0.3-0.3c-0.1-0.1-0.3-0.1-0.4-0.1c-0.1,0-0.3,0-0.4-0.1c-0.2,0-0.4-0.1-0.6-0.3
				c-0.1-0.1-0.1-0.1-0.2-0.2c0,0,0,0-0.1-0.1c0,0-0.1,0-0.2,0c-0.2-0.1-0.5-0.1-0.8-0.4c-0.2-0.3-0.3-0.7-0.3-1.2
				c0-0.3,0.3-0.5,0.6-0.5c0.3,0,0.6,0.3,0.5,0.6c0,0.3,0,0.4,0,0.4c0,0,0.1,0,0.2,0.1c0.1,0,0.3,0.1,0.4,0.1
				c0.2,0.1,0.3,0.2,0.4,0.3c0,0,0,0,0.1,0.1c0,0,0,0,0.1,0c0.1,0,0.2,0,0.3,0c0.2,0,0.6,0.1,0.9,0.2c0.3,0.1,0.5,0.4,0.6,0.6
				c0.1,0.1,0.1,0.1,0.2,0.2c0.1,0.1,0.3,0.2,0.6,0.2c0.3,0.1,0.5,0.2,0.8,0.3c0.1,0,0.2,0.1,0.3,0.1c0.1,0,0.2,0,0.5,0
				c0.1,0,0.2,0,0.3-0.1c0.3-0.1,0.6,0.1,0.7,0.5c0.1,0.3-0.1,0.6-0.5,0.7c-0.1,0-0.2,0-0.2,0.1C116.4,130.2,116.2,130.2,116,130.2z
				 M112.2,127.5L112.2,127.5L112.2,127.5z"/>
		</g>
	</g>
	<g id="SPLINE_40_">
		<g>
			<path d="M65.4,130.2c-0.4,0-0.7-0.2-1-0.4l-0.1-0.1c-0.3-0.2-0.8-0.2-1.3-0.2c-0.5,0-1.1,0-1.6-0.2c-0.3-0.1-0.4-0.5-0.3-0.8
				c0.1-0.3,0.5-0.4,0.8-0.3c0.3,0.1,0.7,0.1,1.2,0.1c0.6,0,1.3,0,1.9,0.3l0.1,0.1c0,0,0.1,0.1,0.1,0.1c0,0,0-0.1,0-0.1l0-0.1
				c0-0.3-0.1-0.4-0.3-0.8c-0.2-0.3-0.4-0.7-0.5-1.3c0-0.6,0.1-1,0.3-1.4c0.1-0.3,0.2-0.6,0.2-1c0-0.3,0.3-0.6,0.6-0.6c0,0,0,0,0,0
				c0.3,0,0.6,0.3,0.6,0.6c0,0.5-0.1,1-0.3,1.3c-0.1,0.4-0.2,0.7-0.2,1c0,0.3,0.1,0.5,0.3,0.7c0.2,0.4,0.5,0.8,0.5,1.4l0,0.1
				c0,0.3,0,1.1-0.6,1.3C65.6,130.2,65.5,130.2,65.4,130.2z"/>
		</g>
	</g>
	<g>
		<path class="st0" d="M61.4,79.6l41.4-23.2l7.2,16.8c0,0,0.4,1.4-0.3,1.3c-2.6-0.4,3.7,1,4.8,4.8s0,12.8,0,12.8L96,111.8
			c0,0-11.2,12.3-12,12.5s-10.4,8.2-12.3-5.7"/>
	</g>
	<g id="SPLINE_39_">
		<g>
			<path class="st0" d="M118.8,95.7c0-0.4-0.2-0.9-0.6-1.2c-0.4-0.2-0.8-0.2-1.1-0.5c-0.1-0.1-0.3-0.3-0.3-0.5
				c0-0.2,0.2-0.3,0.4-0.4c0.3-0.2,0.6-0.6,0.5-0.9c-0.1-0.3-0.1-0.8-0.3-1.1c-0.3-0.3-0.7-0.4-1-0.8c-0.3-0.5,0-0.7,0.4-1.1
				c0.3-0.3,0.6-0.7,0.7-1.1c0.1-0.5-0.2-0.8-0.6-1.1c-0.3-0.2-0.8-0.5-0.7-0.9c0.1-0.4,0.6-0.5,0.7-0.9c0.1-0.3,0.1-0.8,0-1.1
				c-0.1-0.1-0.2-0.2-0.3-0.4c-0.1-0.2-0.3-0.3-0.4-0.5c-0.1-0.1-0.3-0.2-0.2-0.4c0-0.2,0.2-0.4,0.2-0.6c0-0.4-0.6-0.6-0.7-0.9
				c-0.2-0.4,0.3-0.7,0.5-1c0.2-0.2,0.5-0.8,0.4-1.1c-0.1-0.2-0.3-0.2-0.4-0.4c-0.2-0.1-0.2-0.3-0.3-0.5c-0.1-0.2-0.2-0.4-0.4-0.5
				c-0.2-0.1-0.4-0.1-0.6-0.1c-0.5,0-1,0-1.4-0.2"/>
			<path d="M118.8,96.3c-0.3,0-0.5-0.2-0.6-0.5c0-0.3-0.2-0.6-0.4-0.7c-0.1-0.1-0.2-0.1-0.3-0.1c-0.3-0.1-0.6-0.2-0.9-0.5
				c-0.1-0.1-0.5-0.5-0.4-1c0.1-0.4,0.3-0.6,0.5-0.7l0.1-0.1c0.2-0.2,0.3-0.3,0.3-0.3c0-0.1,0-0.2-0.1-0.3c0-0.1-0.1-0.4-0.1-0.5
				c-0.1-0.1-0.2-0.2-0.3-0.2c-0.2-0.1-0.5-0.3-0.7-0.6c-0.6-0.8,0.1-1.5,0.4-1.8c0.3-0.3,0.5-0.5,0.5-0.8c0-0.1,0-0.2-0.4-0.5
				c0,0-0.1-0.1-0.1-0.1c-0.3-0.2-0.9-0.7-0.8-1.4c0.1-0.4,0.4-0.6,0.6-0.7c0.1,0,0.2-0.1,0.2-0.2c0.1-0.2,0.1-0.6,0-0.7
				c0,0-0.1-0.1-0.1-0.1c0,0-0.1-0.1-0.1-0.1l-0.1-0.1c-0.1-0.1-0.2-0.2-0.3-0.3c-0.2-0.2-0.5-0.4-0.5-0.9c0-0.2,0.1-0.3,0.1-0.4
				c0,0,0,0,0,0c0,0-0.1-0.1-0.2-0.1c-0.2-0.2-0.4-0.3-0.5-0.6c-0.3-0.7,0.3-1.2,0.5-1.4c0.1-0.1,0.1-0.1,0.1-0.1
				c0.1-0.2,0.3-0.4,0.3-0.5c0,0,0,0,0,0c-0.1-0.1-0.1-0.1-0.2-0.2c-0.2-0.2-0.3-0.4-0.4-0.6l-0.1-0.1c-0.1-0.1-0.1-0.3-0.2-0.3
				c0,0-0.1,0-0.2,0l-0.1,0c-0.6,0-1.1,0-1.7-0.3c-0.3-0.1-0.4-0.5-0.3-0.8c0.1-0.3,0.5-0.4,0.8-0.3c0.4,0.2,0.7,0.2,1.2,0.1
				c0.3,0,0.6,0,0.9,0.1c0.3,0.2,0.5,0.5,0.6,0.7l0.1,0.2c0,0.1,0.1,0.2,0.1,0.2c0,0,0.1,0,0.1,0.1c0.1,0.1,0.3,0.2,0.5,0.5
				c0.3,0.7-0.3,1.6-0.5,1.7c-0.1,0.1-0.1,0.2-0.2,0.2c-0.1,0.1-0.1,0.1-0.2,0.2c0,0,0.1,0.1,0.2,0.1c0.2,0.2,0.5,0.4,0.6,0.9
				c0,0.3-0.1,0.5-0.1,0.6c0.2,0.1,0.3,0.3,0.4,0.4l0.2,0.2c0.1,0.1,0.2,0.2,0.3,0.4c0.3,0.5,0.2,1.1,0.1,1.6
				c-0.1,0.3-0.4,0.5-0.5,0.7c0,0-0.1,0.1-0.1,0.1c0.1,0.1,0.2,0.2,0.3,0.2c0.1,0.1,0.1,0.1,0.2,0.1c0.3,0.3,1,0.8,0.8,1.6
				c-0.1,0.5-0.4,1-0.8,1.4c-0.1,0.1-0.3,0.3-0.3,0.3c0.1,0.1,0.2,0.2,0.4,0.3c0.2,0.1,0.4,0.2,0.6,0.4c0.3,0.3,0.4,0.8,0.4,1.1
				c0,0.1,0,0.2,0,0.2c0.1,0.3,0.1,0.9-0.7,1.5c0,0,0,0-0.1,0.1c0,0,0,0,0,0c0.1,0.1,0.2,0.1,0.4,0.2c0.2,0.1,0.4,0.1,0.6,0.3
				c0.6,0.4,0.8,1.1,0.9,1.6C119.4,96,119.2,96.3,118.8,96.3C118.9,96.3,118.9,96.3,118.8,96.3z"/>
		</g>
	</g>
	<g id="SPLINE_38_">
		<g>
			<path class="st0" d="M110.7,75.1c0.2-0.3-0.5-1.1-0.1-1.2c0.3-0.1,0.6-0.3,0.6-0.7c0-0.7-1.2-0.7-0.9-1.5
				c0.1-0.1,0.2-0.3,0.2-0.4c0-0.2,0-0.4-0.1-0.5c-0.2-0.4-0.3-0.6-0.1-1c0.2-0.3,0.5-0.7,0.4-1c-0.1-0.4-0.5-0.4-0.7-0.7
				c-0.3-0.4-0.2-1.1-0.2-1.7c0-0.3-0.3-0.4-0.5-0.7c-0.3-0.4-0.2-0.7-0.1-1c0.2-0.4,0-0.7-0.2-1.1c-0.3-0.3-0.7-0.4-1-0.7
				c-0.3-0.2-0.3-0.5-0.3-0.9c0-0.4-0.2-0.4-0.6-0.6c-0.3-0.2-0.1-0.4-0.1-0.7c0.1-0.4-0.1-0.5-0.4-0.7c-0.3-0.2-0.5-0.6-0.4-0.9
				c0.1-0.1,0.2-0.3,0.3-0.3c0.2,0,0.4,0.1,0.6,0c0.1-0.1,0.2-0.2,0.3-0.3c0.1-0.1,0.2-0.1,0.3-0.1c0.3-0.1,0.7,0,0.9-0.2
				c0.2-0.2,0.4-0.6,0.3-0.8c-0.1-0.3-0.5-0.3-0.7-0.5c-0.3-0.2-0.3-0.6-0.6-0.8c-0.3-0.3-0.7-0.2-1.1-0.3c-0.3-0.2-0.3-0.5-0.6-0.7
				c-0.3-0.2-0.7-0.1-0.9-0.4c-0.2-0.3-0.1-0.6-0.3-0.9c-0.2-0.3-0.5-0.4-0.7-0.7c-0.2-0.3-0.1-0.7-0.2-1c-0.1-0.4-0.4-0.6-0.8-0.7
				c-0.2,0-0.4,0-0.5-0.1c-0.2-0.1-0.3-0.3-0.5-0.4c-0.2-0.1-0.3,0-0.5,0c-0.2,0-0.4,0-0.5,0c-0.4-0.1-0.4-0.3-0.5-0.7
				c-0.1-0.3-0.5-0.7-0.8-0.5c-0.1,0.1-0.2,0.3-0.3,0.3C99.2,50,99,50,98.9,50.1c-0.1,0.1-0.3,0.1-0.3,0.2c-0.1,0.2,0,0.3,0,0.5
				c0,0.2-0.2,0.3-0.3,0.4c-0.2,0.1-0.1,0.2-0.2,0.4c0,0.2-0.2,0.1-0.3,0.1c-0.2,0-0.4,0.2-0.5,0.3"/>
			<path d="M110.7,75.7c-0.1,0-0.2,0-0.3-0.1c-0.2-0.1-0.3-0.4-0.3-0.7c0-0.1-0.1-0.2-0.1-0.2c-0.1-0.3-0.4-1,0.3-1.3
				c0.2-0.1,0.2-0.1,0.2-0.1c0-0.1-0.2-0.2-0.3-0.2c-0.3-0.2-0.9-0.7-0.6-1.5c0-0.1,0.1-0.2,0.2-0.3c0,0,0,0,0-0.1c0,0,0,0-0.1-0.2
				c-0.2-0.4-0.4-0.9-0.1-1.5c0-0.1,0.1-0.2,0.2-0.3c0.1-0.1,0.2-0.3,0.2-0.4c0,0-0.1-0.1-0.1-0.1c-0.1-0.1-0.3-0.2-0.5-0.4
				c-0.3-0.5-0.3-1.1-0.3-1.6c0-0.1,0-0.2,0-0.3c0,0-0.1-0.1-0.1-0.1c-0.1-0.1-0.2-0.2-0.3-0.3c-0.5-0.6-0.3-1.2-0.2-1.6
				c0.1-0.1,0.1-0.2-0.1-0.5c-0.1-0.1-0.2-0.2-0.3-0.2c-0.2-0.1-0.4-0.2-0.6-0.4c-0.4-0.4-0.5-0.9-0.5-1.2c0,0,0,0,0,0
				c-0.1,0-0.2-0.1-0.3-0.1c-0.4-0.2-0.6-0.7-0.4-1.2l0-0.1c0,0-0.1-0.1-0.2-0.1c-0.6-0.5-0.8-1.1-0.5-1.6c0.2-0.4,0.4-0.6,0.8-0.6
				c0.2,0,0.3,0,0.4,0c0-0.1,0.1-0.1,0.1-0.2c0.2-0.2,0.4-0.3,0.6-0.3c0.1,0,0.2,0,0.3,0c0.1,0,0.3,0,0.3-0.1c0,0,0.1-0.1,0.1-0.2
				c0,0-0.1,0-0.1-0.1c-0.1-0.1-0.3-0.1-0.4-0.2c-0.3-0.2-0.4-0.5-0.5-0.6c0-0.1-0.1-0.2-0.1-0.2c0,0-0.2,0-0.3-0.1
				c-0.2,0-0.4-0.1-0.6-0.2c-0.3-0.2-0.5-0.4-0.5-0.6c0-0.1-0.1-0.1-0.1-0.2c0,0-0.1,0-0.2-0.1c-0.2-0.1-0.6-0.1-0.8-0.5
				c-0.2-0.2-0.2-0.5-0.3-0.6c0-0.1,0-0.2-0.1-0.2c0-0.1-0.1-0.1-0.2-0.2c-0.2-0.1-0.4-0.3-0.5-0.5c-0.2-0.3-0.2-0.6-0.2-0.8
				c0-0.1,0-0.2,0-0.3c0-0.1-0.1-0.3-0.3-0.3l-0.1,0c-0.2,0-0.3,0-0.5-0.1c-0.2-0.1-0.3-0.2-0.4-0.3c0,0-0.1,0-0.1-0.1
				c0,0,0,0-0.1,0c-0.1,0-0.1,0-0.2,0c-0.2,0-0.5,0-0.7,0c-0.8-0.2-0.9-0.7-1-1.1c0,0,0,0,0,0c0,0.1-0.1,0.1-0.2,0.2
				c-0.2,0.1-0.4,0.2-0.5,0.2c0,0-0.1,0-0.1,0c0,0.1,0,0.2,0,0.3c-0.1,0.4-0.3,0.6-0.5,0.7c0,0,0,0,0,0c0,0.1-0.1,0.7-0.8,0.7
				c0,0-0.1,0-0.2,0.1c-0.2,0.2-0.6,0.2-0.8,0c-0.2-0.2-0.2-0.6,0-0.8c0.2-0.3,0.5-0.4,0.7-0.5c0-0.2,0.1-0.3,0.4-0.5
				c0,0,0.1,0,0.1-0.1c0-0.1-0.1-0.4,0.1-0.6c0.2-0.3,0.4-0.4,0.6-0.5c0.1,0,0.2-0.1,0.3-0.1c0,0,0,0,0,0c0.1-0.1,0.2-0.3,0.4-0.4
				c0.3-0.1,0.6-0.1,0.9,0c0.4,0.2,0.7,0.5,0.7,0.9c0,0.1,0,0.2,0.1,0.2c0,0,0.1,0,0.1,0c0.1,0,0.2,0,0.2,0c0,0,0.1,0,0.1,0
				c0.2,0,0.5-0.1,0.7,0.1c0.1,0.1,0.2,0.2,0.3,0.2c0,0,0.1,0.1,0.1,0.1c0.1,0,0.1,0,0.2,0l0.2,0c0.6,0.1,1.1,0.5,1.3,1.1
				c0.1,0.2,0.1,0.4,0.1,0.6c0,0.1,0,0.3,0,0.3c0,0.1,0.1,0.1,0.2,0.2c0.1,0.1,0.3,0.2,0.4,0.4c0.2,0.2,0.2,0.5,0.3,0.7
				c0,0.1,0,0.2,0.1,0.2c0,0,0.1,0,0.2,0c0.2,0,0.4,0.1,0.6,0.3c0.2,0.2,0.3,0.3,0.4,0.5c0,0.1,0.1,0.1,0.1,0.1c0.1,0,0.2,0,0.3,0.1
				c0.3,0,0.6,0.1,0.9,0.4c0.2,0.2,0.3,0.4,0.4,0.5c0.1,0.1,0.1,0.2,0.1,0.2c0,0,0.1,0.1,0.2,0.1c0.2,0.1,0.6,0.3,0.7,0.7
				c0.2,0.5-0.1,1.2-0.4,1.5c-0.3,0.2-0.7,0.3-0.9,0.3c-0.1,0-0.1,0-0.2,0c-0.1,0.1-0.2,0.3-0.4,0.4c-0.2,0.1-0.5,0.1-0.6,0.1
				c0,0.1,0.1,0.2,0.2,0.2c0.3,0.2,0.8,0.6,0.5,1.3l0,0.1c0.2,0.1,0.7,0.3,0.7,1c0,0.3,0.1,0.4,0.2,0.5c0.1,0.1,0.2,0.1,0.3,0.2
				c0.2,0.1,0.5,0.2,0.7,0.5c0.5,0.5,0.6,1,0.3,1.6c-0.1,0.4-0.1,0.4,0,0.5c0,0.1,0.1,0.1,0.1,0.1c0.2,0.2,0.4,0.4,0.5,0.9
				c0,0.1,0,0.2,0,0.4c0,0.4,0,0.8,0.1,1c0,0,0.1,0.1,0.2,0.1c0.2,0.1,0.5,0.3,0.6,0.8c0.1,0.5-0.1,1-0.3,1.3c0,0.1-0.1,0.1-0.1,0.2
				c-0.1,0.1-0.1,0.1,0.1,0.4c0,0,0,0.1,0,0.1c0.1,0.2,0.2,0.5,0.1,0.9c0,0.2-0.1,0.3-0.2,0.4c0,0,0,0,0,0.1c0,0.1,0.1,0.2,0.2,0.2
				c0.3,0.2,0.7,0.5,0.7,1.1c0,0.6-0.3,0.9-0.6,1.1c0,0,0,0,0,0c0.1,0.3,0.3,0.7,0.1,1.1C111,75.6,110.9,75.7,110.7,75.7z
				 M110.2,74.8C110.2,74.8,110.2,74.8,110.2,74.8C110.2,74.8,110.2,74.8,110.2,74.8z M110.8,74.4C110.8,74.4,110.8,74.4,110.8,74.4
				C110.8,74.4,110.8,74.4,110.8,74.4z M108.4,57.5L108.4,57.5L108.4,57.5z M108.3,57.4L108.3,57.4L108.3,57.4z M98.1,51.2l0.4,0.4
				c0,0,0,0,0-0.1L98.1,51.2z"/>
		</g>
	</g>
	<g id="SPLINE_37_">
		<g>
			<path class="st0" d="M113.1,77.7c0.1-0.4-0.2-0.9-0.6-1c-0.4-0.1-0.9-0.2-1.3-0.4c-0.5-0.2-0.3-0.7-0.4-1.1
				c0-0.2-0.1-0.4-0.3-0.5c-0.2-0.1-0.4,0-0.6-0.1"/>
			<path d="M113.1,78.3c0,0-0.1,0-0.1,0c-0.3-0.1-0.5-0.4-0.5-0.7c0-0.1-0.1-0.3-0.2-0.4c-0.1,0-0.2-0.1-0.4-0.1
				c-0.3-0.1-0.7-0.2-1-0.4c-0.7-0.3-0.7-0.9-0.7-1.3c0-0.1,0-0.2,0-0.3c0,0,0,0,0-0.1c0,0-0.1,0-0.1,0c-0.1,0-0.3,0-0.4-0.1
				c-0.3-0.1-0.5-0.4-0.4-0.7c0.1-0.3,0.4-0.5,0.7-0.4c0.1,0,0.1,0,0.2,0c0.1,0,0.3,0,0.4,0.1c0.5,0.2,0.6,0.7,0.7,0.9
				c0,0.2,0,0.3,0,0.5c0,0.1,0,0.2,0,0.2c0.3,0.1,0.6,0.2,0.9,0.3c0.1,0,0.3,0.1,0.4,0.1c0.7,0.2,1.2,1,1,1.7
				C113.6,78.1,113.3,78.3,113.1,78.3z"/>
		</g>
	</g>
	<g id="SPLINE_36_">
		<g>
			<path d="M78.9,147c-0.1,0-0.2,0-0.3-0.1c-0.9-0.5-3.8-2.1-4.1-3.4c-0.1-0.3-0.4-0.8-0.8-1.3c-0.7-0.9-1.4-2-1.4-3.2
				c0-1.6-0.3-6.4-0.3-6.4c0-0.2,0-0.3,0.1-0.4c0.7-0.8,1.8-1,2.7-1.2c0.4-0.1,0.7-0.1,1-0.2c0.5-0.2,1-0.4,1.5-0.7l0.7-0.4
				c0.5-0.3,1.1-0.6,1.6-0.9c0.3-0.2,0.6-0.1,0.8,0.2c0.2,0.3,0.1,0.6-0.2,0.8c-0.5,0.3-1.1,0.6-1.6,0.9L78,131
				c-0.5,0.3-1.1,0.6-1.7,0.8c-0.4,0.1-0.7,0.2-1.1,0.3c-0.7,0.1-1.4,0.3-1.9,0.7c0.1,1,0.3,4.8,0.3,6.3c0,0.8,0.6,1.7,1.2,2.5
				c0.4,0.6,0.8,1.2,1,1.7c0.1,0.5,1.9,1.8,3.5,2.6c0.3,0.2,0.4,0.5,0.2,0.8C79.3,146.9,79.1,147,78.9,147z"/>
		</g>
	</g>
	<g id="SPLINE_35_">
		<g>
			<path class="st0" d="M71.8,124c-0.1,0.2-0.2,0.3-0.2,0.5c-0.1,0.1-0.2,0.3-0.2,0.4c0,0.4,0.5,0.5,0.3,1c-0.1,0.3-0.5,0.3-0.8,0.4
				c-0.3,0.2-0.4,0.6-0.8,0.6c-0.2,0-0.3-0.1-0.5-0.1c-0.2,0-0.3,0.1-0.4,0.2c-0.1,0.2-0.2,0.2-0.2,0.4c0,0.2-0.2,0.4-0.2,0.6
				c0,0.4,0.4,0.5,0.6,0.6c0.3,0.1,0.5,0.4,0.5,0.8c0.1,0.3,0.3,0.5,0.6,0.3c0.1-0.1,0.2-0.2,0.3-0.3c0.1-0.1,0.3-0.1,0.4-0.2
				c0.3,0,0.6,0.1,0.8-0.1c0.1-0.1,0.3-0.3,0.5-0.3c0.2,0,0.3,0.1,0.5,0.1c0.3,0,0.6-0.2,0.8-0.4c0.2-0.3,0.4-0.7,0.7-0.6
				c0.2,0,0.3,0.1,0.5,0.1c0.2,0,0.4-0.1,0.6,0c0.1,0,0.3,0.1,0.5,0c0.2-0.1,0.2-0.3,0.3-0.4c0.2-0.4,0.4-0.2,0.7,0
				c0.2,0.1,0.4,0.1,0.5,0.1c0.2,0,0.5-0.1,0.6,0c0.2,0.1,0.2,0.6,0.3,0.9c0.2,0.3,0.5,0.5,0.8,0.6c0.3,0.1,0.6,0.1,0.8,0.4
				c0.1,0.1,0.2,0.3,0.3,0.4c0.1,0.1,0.3,0.2,0.3,0.4c0.1,0.3-0.1,0.7,0,1c0,0.2,0.1,0.3,0.2,0.4c0.2,0.1,0.3,0.1,0.5,0.2
				c0.3,0.1,0.6,0.2,0.6,0.5c0,0.4,0,0.7,0.4,0.9c0.2,0.2,0.7,0.1,0.9,0c0.3-0.1,0.6-0.4,0.8-0.6c0.3-0.2,0.5-0.5,0.8-0.7
				c0.3-0.3,0.5-0.3,0.9-0.4c0.2,0,0.5,0,0.7-0.2c0.2-0.4,0-0.7,0-1.1c0-0.3,0.1-0.8,0.5-0.6c0.2,0.1,0.3,0.2,0.5,0.4
				c0.2,0.1,0.2,0.2,0.3,0.4c0.1,0.4,0.5,0.5,0.9,0.6c0.3,0.1,0.7,0.2,1-0.1c0.3-0.2,0.6-0.5,1-0.4c0.2,0,0.3,0.1,0.5,0
				c0.1-0.1,0.3-0.2,0.4-0.3c0.2-0.2,0.4-0.4,0.7-0.5c0.4-0.2,0.6-0.4,0.7-0.9"/>
			<path d="M83,134c-0.3,0-0.5-0.1-0.7-0.2c-0.6-0.4-0.6-1-0.6-1.3c0,0,0,0-0.1,0l-0.1,0c-0.2,0-0.5,0-0.7-0.3
				c-0.2-0.2-0.3-0.5-0.4-0.7c-0.1-0.3-0.1-0.6,0-0.8c0-0.1,0-0.2,0-0.2c0,0,0,0,0,0c-0.1-0.1-0.1-0.1-0.2-0.2
				c-0.1-0.1-0.1-0.2-0.2-0.3c0,0,0-0.1-0.1-0.1c-0.1-0.1-0.1-0.1-0.4-0.2l-0.1,0c-0.5-0.1-1-0.4-1.2-0.9c-0.1-0.2-0.1-0.3-0.2-0.5
				c0,0,0-0.1,0-0.1c0,0,0,0,0,0c-0.1,0-0.1,0-0.2,0c-0.2,0-0.5,0-0.8-0.2l-0.1,0c-0.1,0.1-0.2,0.4-0.4,0.5
				c-0.3,0.2-0.6,0.1-0.8,0.1c-0.1,0-0.1,0-0.2,0c-0.1,0-0.1,0-0.2,0c-0.2,0-0.4,0-0.5,0c0,0,0,0-0.1,0c-0.1,0.1-0.2,0.2-0.2,0.3
				c-0.3,0.5-0.8,0.8-1.3,0.8c-0.1,0-0.2-0.1-0.3-0.1c0,0,0,0-0.1,0.1c-0.1,0-0.1,0.1-0.2,0.1c-0.3,0.2-0.6,0.2-0.8,0.2
				c-0.1,0-0.1,0-0.2,0c-0.1,0-0.1,0-0.2,0c0,0,0,0,0,0.1c-0.1,0.1-0.1,0.2-0.3,0.3c-0.3,0.2-0.6,0.3-0.9,0.1
				c-0.3-0.1-0.6-0.4-0.6-0.8c-0.1-0.3-0.1-0.3-0.2-0.3c-0.4-0.1-1-0.4-1-1.1c0-0.2,0.1-0.4,0.1-0.5c0,0,0-0.1,0-0.1
				c0-0.4,0.2-0.5,0.3-0.7c0,0,0.1-0.1,0.1-0.1c0.1-0.1,0.4-0.4,0.8-0.3c0.1,0,0.2,0,0.3,0c0,0,0.1,0,0.1,0c0,0,0.1-0.1,0.1-0.2
				c0.1-0.1,0.2-0.3,0.4-0.4c0.2-0.1,0.3-0.2,0.5-0.2c0,0,0,0,0.1,0c-0.1-0.2-0.3-0.4-0.2-0.8c0-0.2,0.1-0.4,0.2-0.6l0-0.1
				c0-0.1,0.1-0.2,0.1-0.2c0-0.1,0.1-0.2,0.1-0.2c0.1-0.3,0.5-0.4,0.8-0.3c0.3,0.1,0.4,0.5,0.3,0.8l-0.1,0.2c0,0.1-0.1,0.2-0.1,0.3
				c0,0.1-0.1,0.1-0.1,0.2c0,0,0,0,0,0c0,0,0,0,0,0c0.1,0.2,0.4,0.6,0.2,1.2c-0.2,0.4-0.5,0.5-0.8,0.6c-0.1,0-0.2,0.1-0.2,0.1
				c0,0-0.1,0.1-0.1,0.2c-0.2,0.2-0.4,0.5-0.9,0.6c-0.2,0-0.4,0-0.5,0c0,0-0.1,0-0.1,0c0,0,0,0,0,0l-0.5-0.3l0.4,0.4l0,0
				c0,0.2-0.1,0.3-0.1,0.4c0,0,0,0,0,0c0.1,0,0.1,0.1,0.2,0.1c0,0,0.1,0,0.1,0c0.4,0.1,0.7,0.4,0.8,0.9c0,0,0,0,0,0
				c0.3-0.2,0.6-0.3,0.7-0.3c0.1,0,0.3,0,0.4,0c0.1,0,0.1,0,0.2,0c0,0,0,0,0.1-0.1c0.1-0.1,0.3-0.3,0.6-0.3c0.3-0.1,0.5,0,0.6,0.1
				c0.1,0,0.2,0,0.2-0.1c0.2-0.4,0.6-1,1.3-0.9c0.1,0,0.2,0,0.3,0c0,0,0.1,0,0.1,0c0,0,0.1,0,0.1,0c0.1,0,0.3-0.1,0.6,0
				c0,0,0.1,0,0.1,0c0,0,0,0,0,0c0-0.1,0.1-0.1,0.1-0.2c0.5-0.7,1.1-0.4,1.4-0.3l0.1,0.1c0.1,0,0.1,0,0.3,0c0,0,0.1,0,0.1,0
				c0.2,0,0.5-0.1,0.8,0.1c0.4,0.2,0.5,0.6,0.5,0.9c0,0.1,0,0.1,0,0.2c0,0.1,0.2,0.2,0.4,0.3l0.1,0c0.3,0.1,0.7,0.2,1.1,0.6
				c0,0.1,0.1,0.1,0.1,0.2c0,0.1,0.1,0.1,0.1,0.2c0,0,0,0,0.1,0.1c0.1,0.1,0.3,0.3,0.4,0.6c0.1,0.3,0,0.5,0,0.7c0,0.1,0,0.2,0,0.3
				c0,0.1,0.1,0.2,0.1,0.2c0,0,0,0,0,0c0.1,0,0.1,0,0.2,0c1,0.2,1.1,0.8,1,1.1c0,0.3,0,0.3,0.1,0.4c0,0,0.2,0,0.3-0.1
				c0.2-0.1,0.5-0.3,0.6-0.5l0.3-0.2c0.2-0.1,0.3-0.3,0.5-0.5c0.4-0.4,0.9-0.5,1.3-0.5c0.1,0,0.1,0,0.2,0c0,0,0,0,0,0
				c0,0,0-0.1,0-0.2c0-0.1-0.1-0.3-0.1-0.4c0-0.1,0-0.8,0.4-1.1c0.2-0.2,0.5-0.2,0.8-0.1c0.2,0.1,0.4,0.2,0.5,0.3
				c0,0,0.1,0.1,0.1,0.1c0.3,0.2,0.4,0.4,0.5,0.7c0,0.1,0.4,0.2,0.5,0.2c0.2,0,0.5,0.1,0.5,0c0.3-0.2,0.8-0.6,1.5-0.5
				c0,0,0.1,0,0.1,0c0,0,0.1-0.1,0.2-0.2l0.1-0.1c0.2-0.2,0.4-0.4,0.7-0.5c0.3-0.1,0.3-0.2,0.4-0.4c0-0.3,0.3-0.5,0.7-0.5
				c0.3,0,0.5,0.3,0.5,0.7c-0.1,0.6-0.4,1-1.1,1.3c-0.1,0-0.2,0.1-0.4,0.3l-0.1,0.1c-0.1,0.1-0.3,0.3-0.5,0.4
				c-0.4,0.2-0.7,0.2-0.9,0.1c-0.1,0-0.3,0-0.5,0.3c-0.5,0.4-1.2,0.3-1.5,0.2c-0.3-0.1-1.1-0.2-1.3-1c0-0.1,0-0.1,0-0.1
				c0,0,0,0-0.1-0.1c0,0,0,0,0,0c0,0,0,0,0,0c0.1,0.3,0.1,0.7-0.1,1.1c-0.3,0.5-0.8,0.5-1,0.5l-0.1,0c-0.3,0-0.4,0.1-0.5,0.2
				c-0.2,0.2-0.3,0.3-0.5,0.5l-0.3,0.2c-0.3,0.3-0.6,0.5-1,0.7C83.5,133.9,83.3,134,83,134z"/>
		</g>
	</g>
	<g>
		<path d="M233.4,81.7c-0.1,0-0.1,0-0.2,0l-4.6-1.7c-0.1,0-0.2-0.1-0.3-0.2L201,42.6c-0.2-0.3-0.1-0.6,0.1-0.8
			c0.3-0.2,0.6-0.1,0.8,0.1l27.2,36.9l4.5,1.7c0.3,0.1,0.4,0.4,0.3,0.7C233.8,81.5,233.6,81.7,233.4,81.7z"/>
	</g>
	<g>
		<polygon class="st0" points="139,98.5 139,114 153.8,114.7 153.8,99.1 		"/>
		<path d="M154.4,115.3l-15.9-0.8V97.9l15.9,0.6V115.3z M139.6,113.4l13.6,0.7V99.6l-13.6-0.5V113.4z"/>
	</g>
	<g>
		<line class="st0" x1="145.9" y1="98.7" x2="145.9" y2="114.1"/>
		<rect x="145.3" y="98.7" width="1.1" height="15.3"/>
	</g>
	<g id="SPLINE_34_">
		<g>
			<path class="st0" d="M94.6,69.9c-0.2-0.1-0.4-0.3-0.5-0.5c-0.1-0.2-0.1-0.4-0.3-0.6c-0.4-0.3-1,0-1.4-0.4
				c-0.4-0.4-0.1-1.1-0.4-1.5c-0.3-0.5-1.1-0.1-1.5-0.4c-0.2-0.1-0.3-0.4-0.4-0.6c-0.2-0.2-0.4-0.4-0.6-0.5
				c-0.5-0.2-1.1-0.1-1.7-0.3c-0.2-0.1-0.5-0.1-0.7-0.3c-0.3-0.2-0.3-0.3-0.4-0.6c-0.2-0.4-0.9-0.5-1.2-0.1
				c-0.2,0.2-0.3,0.4-0.5,0.5c-0.2,0.1-0.5,0.1-0.8,0.1c-0.2-0.1-0.4-0.3-0.6-0.3c-0.1,0-0.3,0-0.4,0c-0.2,0-0.4,0-0.6-0.1
				c-0.3-0.1-0.5-0.2-0.8-0.1c-0.3,0.1-0.5,0.3-0.6,0.6c-0.1,0.3-0.2,0.4-0.5,0.5c-0.3,0-0.6,0-0.8,0.1c-0.5,0.3-0.3,1.2-0.9,1.1
				c-0.3,0-0.6-0.2-1-0.1c-0.3,0-0.6,0.2-0.8,0.5"/>
			<path d="M94.6,70.4c-0.1,0-0.2,0-0.3-0.1c-0.3-0.2-0.6-0.4-0.7-0.8c0-0.1-0.1-0.1-0.1-0.2c0-0.1-0.1-0.2-0.1-0.2c0,0-0.2,0-0.3,0
				c-0.3,0-0.8,0-1.1-0.4c-0.4-0.4-0.4-0.9-0.4-1.2c0-0.2,0-0.3,0-0.4c0,0-0.2,0-0.3,0c-0.3,0-0.7,0-1-0.3c-0.2-0.2-0.4-0.4-0.5-0.5
				c0,0-0.1-0.1-0.1-0.1c-0.1-0.1-0.2-0.2-0.3-0.3c-0.2-0.1-0.5-0.1-0.8-0.1c-0.3,0-0.5,0-0.8-0.1c-0.3-0.1-0.6-0.2-0.8-0.3
				c-0.3-0.2-0.5-0.5-0.6-0.7l-0.1-0.1c0,0,0,0-0.1-0.1c-0.1,0-0.1,0-0.2,0.1c0,0-0.1,0.1-0.1,0.1c-0.1,0.1-0.3,0.3-0.5,0.5
				c-0.3,0.2-0.8,0.2-1.2,0.1c-0.2-0.1-0.3-0.2-0.4-0.2c0,0-0.1,0-0.1-0.1c0,0,0,0,0,0c-0.1,0-0.1,0-0.2,0c-0.4,0-0.7-0.1-0.8-0.1
				c-0.3-0.1-0.3-0.1-0.4-0.1c-0.1,0.1-0.2,0.2-0.3,0.3c-0.1,0.3-0.3,0.7-1,0.8c-0.1,0-0.2,0-0.3,0c-0.1,0-0.3,0-0.3,0
				c0,0-0.1,0.2-0.1,0.3c-0.1,0.3-0.3,1-1.2,1c-0.2,0-0.3,0-0.5-0.1c-0.2,0-0.3-0.1-0.4,0c-0.2,0-0.3,0.1-0.4,0.2
				c-0.2,0.3-0.6,0.3-0.8,0.1c-0.3-0.2-0.3-0.6-0.1-0.8c0.3-0.4,0.7-0.6,1.2-0.7c0.3,0,0.6,0,0.8,0.1c0.1,0,0.2,0,0.3,0
				c0,0,0-0.1,0.1-0.2c0.1-0.3,0.2-0.6,0.6-0.9c0.3-0.2,0.6-0.2,0.8-0.2c0.1,0,0.1,0,0.2,0c0,0,0-0.1,0-0.1c0.2-0.4,0.5-0.8,0.9-0.9
				c0.5-0.2,0.9,0,1.2,0.1c0.2,0.1,0.3,0.1,0.3,0.1c0.2,0,0.4-0.1,0.6,0c0.2,0.1,0.4,0.2,0.5,0.3c0,0,0.1,0.1,0.1,0.1
				c0.1,0,0.2,0,0.3,0c0,0,0.1-0.1,0.2-0.2c0.1-0.1,0.1-0.1,0.2-0.2c0.3-0.3,0.7-0.5,1.2-0.4c0.4,0.1,0.8,0.3,1,0.7
				c0,0.1,0.1,0.1,0.1,0.2c0.1,0.2,0.1,0.2,0.1,0.2c0.1,0.1,0.3,0.1,0.5,0.2c0.2,0,0.4,0.1,0.7,0.1c0.3,0,0.7,0.1,1.1,0.2
				c0.4,0.1,0.7,0.4,0.9,0.7c0,0.1,0.1,0.1,0.1,0.2c0.1,0.1,0.1,0.2,0.2,0.2c0,0,0.2,0,0.4,0c0.4,0,0.9,0,1.3,0.6
				c0.2,0.3,0.2,0.7,0.2,1c0,0.2,0,0.4,0.1,0.4c0,0,0.2,0,0.3,0c0.3,0,0.7,0,1,0.3c0.2,0.2,0.3,0.5,0.4,0.7c0,0,0,0.1,0,0.1
				c0,0.1,0.1,0.2,0.3,0.3c0.3,0.2,0.4,0.5,0.2,0.8C95,70.4,94.8,70.4,94.6,70.4z"/>
		</g>
	</g>
	<g id="SPLINE_33_">
		<g>
			<path class="st0" d="M79.8,69.6c-0.2-0.1-0.4-0.3-0.5-0.5c-0.1-0.2-0.1-0.4-0.3-0.6c-0.4-0.3-1,0-1.4-0.4
				c-0.4-0.4-0.1-1.1-0.4-1.5c-0.3-0.5-1.1-0.1-1.5-0.4c-0.2-0.1-0.3-0.4-0.4-0.6c-0.2-0.2-0.4-0.4-0.6-0.5
				c-0.5-0.2-1.1-0.1-1.7-0.3c-0.2-0.1-0.5-0.1-0.7-0.3c-0.3-0.2-0.3-0.3-0.4-0.6c-0.2-0.4-0.9-0.5-1.2-0.1
				c-0.2,0.2-0.3,0.4-0.5,0.5c-0.2,0.1-0.5,0.1-0.8,0.1c-0.2-0.1-0.4-0.3-0.6-0.3c-0.1,0-0.3,0-0.4,0c-0.2,0-0.4,0-0.6-0.1
				c-0.3-0.1-0.5-0.2-0.8-0.1c-0.3,0.1-0.5,0.3-0.6,0.6c-0.1,0.3-0.2,0.4-0.5,0.5c-0.3,0-0.6,0-0.8,0.1c-0.5,0.3-0.3,1.2-0.9,1.1
				c-0.3,0-0.6-0.2-1-0.1c-0.3,0-0.6,0.2-0.8,0.5"/>
			<path d="M79.8,70.1c-0.1,0-0.2,0-0.3-0.1c-0.3-0.2-0.6-0.4-0.7-0.8c0-0.1-0.1-0.1-0.1-0.2c0-0.1-0.1-0.2-0.1-0.2c0,0-0.2,0-0.3,0
				c-0.3,0-0.8,0-1.1-0.4c-0.4-0.4-0.4-0.9-0.4-1.2c0-0.2,0-0.3,0-0.4c0,0-0.2,0-0.3,0c-0.3,0-0.7,0-1-0.3c-0.2-0.2-0.4-0.4-0.5-0.5
				c0,0-0.1-0.1-0.1-0.1c-0.1-0.1-0.2-0.2-0.3-0.3c-0.2-0.1-0.5-0.1-0.8-0.1c-0.3,0-0.5,0-0.8-0.1c-0.2-0.1-0.5-0.1-0.8-0.3
				c-0.3-0.2-0.5-0.5-0.6-0.7l-0.1-0.1c0,0,0,0-0.1-0.1c-0.1,0-0.1,0-0.2,0.1c0,0-0.1,0.1-0.1,0.1c-0.1,0.1-0.3,0.3-0.5,0.5
				c-0.3,0.2-0.8,0.2-1.2,0.1c-0.2-0.1-0.3-0.2-0.4-0.2c0,0-0.1,0-0.1-0.1c0,0,0,0,0,0c-0.1,0-0.1,0-0.2,0c-0.4,0-0.7-0.1-0.8-0.1
				c-0.3-0.1-0.3-0.1-0.4-0.1c-0.1,0.1-0.3,0.2-0.3,0.3c-0.1,0.3-0.3,0.7-1,0.8c-0.1,0-0.2,0-0.3,0c-0.1,0-0.3,0-0.3,0
				c0,0-0.1,0.2-0.1,0.3c-0.1,0.3-0.3,1-1.2,1c-0.2,0-0.3,0-0.5-0.1c-0.2,0-0.3-0.1-0.4,0c-0.2,0-0.3,0.1-0.4,0.2
				c-0.2,0.3-0.6,0.3-0.8,0.1c-0.3-0.2-0.3-0.6-0.1-0.8c0.3-0.4,0.7-0.6,1.2-0.7c0.3,0,0.6,0,0.8,0.1c0.1,0,0.2,0,0.3,0
				c0,0,0-0.1,0.1-0.2c0.1-0.3,0.2-0.6,0.6-0.9c0.3-0.2,0.6-0.2,0.8-0.2c0.1,0,0.1,0,0.2,0c0,0,0-0.1,0-0.1c0.2-0.4,0.5-0.8,0.9-0.9
				c0.5-0.2,0.9,0,1.2,0.1c0.2,0.1,0.3,0.1,0.3,0.1c0.2,0,0.4-0.1,0.6,0c0.2,0.1,0.4,0.2,0.5,0.3c0,0,0.1,0.1,0.1,0.1
				c0.1,0,0.2,0,0.3,0c0,0,0.1-0.1,0.2-0.2c0.1-0.1,0.1-0.1,0.2-0.2c0.3-0.3,0.7-0.5,1.2-0.4c0.4,0.1,0.8,0.3,1,0.7l0.1,0.2
				c0.1,0.2,0.1,0.2,0.1,0.2c0.1,0.1,0.3,0.1,0.5,0.2c0.2,0,0.4,0.1,0.7,0.1c0.3,0,0.7,0.1,1.1,0.2c0.4,0.1,0.7,0.4,0.9,0.7
				c0,0.1,0.1,0.1,0.1,0.2c0.1,0.1,0.1,0.2,0.2,0.2c0,0,0.2,0,0.4,0c0.4,0,0.9,0,1.3,0.6c0.2,0.3,0.2,0.7,0.2,1c0,0.2,0,0.4,0.1,0.4
				c0,0,0.2,0,0.3,0c0.3,0,0.7,0,1,0.3c0.2,0.2,0.3,0.5,0.4,0.7c0,0,0,0.1,0,0.1c0,0.1,0.1,0.2,0.3,0.3c0.3,0.2,0.4,0.5,0.2,0.8
				C80.2,70.1,80,70.1,79.8,70.1z"/>
		</g>
	</g>
</g>
</svg>
